<svg width="49" height="49" viewBox="0 0 49 49" fill="none" xmlns="http://www.w3.org/2000/svg">
<g clip-path="url(#clip0_2314_22267)">
<path d="M24.4932 48.9842C37.7481 48.9842 48.4932 38.2397 48.4932 24.9853C48.4932 11.731 37.7481 0.98645 24.4932 0.98645C11.2382 0.98645 0.493164 11.731 0.493164 24.9853C0.493164 38.2397 11.2382 48.9842 24.4932 48.9842Z" fill="#84462D" fill-opacity="0.5"/>
<path d="M35.9058 21.989L38.4568 19.0947H10.5295L21.875 31.9668V38.9483H27.1114V34.5439C27.8442 34.9344 28.6356 35.2035 29.4546 35.3407C31.9982 35.7635 34.6989 34.9074 36.5272 32.8356C39.3274 29.6625 39.0415 24.8161 35.9058 21.989ZM34.2097 30.7909C32.5389 32.6842 29.6554 32.8827 27.738 31.256L33.8623 24.3077C35.7191 26.0068 35.8823 28.8959 34.2097 30.7909Z" fill="#CFD3D4"/>
<path d="M38.4568 15.3864H10.5295V19.0953H38.4568V15.3864Z" fill="white"/>
<path d="M38.4568 15.3864H24.4932V19.0953H38.4568V15.3864Z" fill="#F0F1F1"/>
<path d="M24.4932 38.9483V19.0947H10.5295L21.875 31.9668V38.9483H24.4932Z" fill="#F0F1F1"/>
</g>
<defs>
<clipPath id="clip0_2314_22267">
<rect width="48" height="47.9977" fill="white" transform="translate(0.493164 0.98645)"/>
</clipPath>
</defs>
</svg>
