<svg width="49" height="49" viewBox="0 0 49 49" fill="none" xmlns="http://www.w3.org/2000/svg">
<g clip-path="url(#clip0_2314_20979)">
<path d="M24.4932 48.9638C37.748 48.9638 48.4932 38.2192 48.4932 24.9649C48.4932 11.7107 37.748 0.966064 24.4932 0.966064C11.2383 0.966064 0.493164 11.7107 0.493164 24.9649C0.493164 38.2192 11.2383 48.9638 24.4932 48.9638Z" fill="#F3B607" fill-opacity="0.5"/>
<path d="M36.2751 23.6557C36.2751 30.1625 29.2932 38.9278 24.4932 38.9278C19.6932 38.9278 12.7114 30.1625 12.7114 23.6557C12.7114 17.149 17.9862 16.2379 24.4932 16.2379C31.0003 16.2379 36.2751 17.149 36.2751 23.6557Z" fill="#DF2C2C"/>
<path d="M24.4933 16.2382C27.1005 16.2382 29.5088 16.3856 31.4607 16.9795C32.1842 15.7826 32.4582 14.3204 32.3072 12.7518C30.1472 12.6854 28.1112 13.3962 26.8505 15.1268C26.6563 13.5813 25.8058 12.1658 24.4933 11.0099C23.144 12.1981 22.2888 13.6624 22.1273 15.2581C20.8719 13.4277 18.8057 12.6837 16.5859 12.7518C16.4341 14.3305 16.7129 15.8014 17.4473 17.0026C19.4122 16.3883 21.8511 16.2382 24.4933 16.2382Z" fill="#0C7367"/>
<path d="M22.1273 15.2581C20.8719 13.4281 18.8057 12.6837 16.5859 12.7518C16.4341 14.3305 16.7129 15.8014 17.4473 17.0026C19.4122 16.3887 21.8511 16.2382 24.4933 16.2382V11.0099C23.144 12.1981 22.2888 13.6624 22.1273 15.2581Z" fill="#099686"/>
<path d="M12.7114 23.6557C12.7114 30.1625 19.6932 38.9278 24.4932 38.9278V16.2379C17.9862 16.2379 12.7114 17.149 12.7114 23.6557Z" fill="#FA5655"/>
<path d="M30.166 22.492C30.166 21.8092 30.7197 21.256 31.4021 21.256C32.085 21.256 32.6382 21.8096 32.6382 22.492C32.6382 23.1748 31.4021 24.9645 31.4021 24.9645C31.4021 24.9645 30.166 23.1748 30.166 22.492Z" fill="#EBEBEC"/>
<path d="M28.4204 28.8188C28.4204 28.1364 28.9741 27.5828 29.6565 27.5828C30.3393 27.5828 30.8926 28.1364 30.8926 28.8188C30.8926 29.5016 29.6565 31.2913 29.6565 31.2913C29.6565 31.2913 28.4204 29.5016 28.4204 28.8188Z" fill="#EBEBEC"/>
<path d="M17.9478 28.8188C17.9478 28.1364 18.5014 27.5828 19.1838 27.5828C19.8667 27.5828 20.4199 28.1364 20.4199 28.8188C20.4199 29.5016 19.1838 31.2913 19.1838 31.2913C19.1838 31.2913 17.9478 29.5016 17.9478 28.8188Z" fill="#EBEBEC"/>
<path d="M23.2568 26.8558C23.2568 26.173 23.8105 25.6198 24.4929 25.6198C25.1753 25.6198 25.729 26.1734 25.729 26.8558C25.729 27.5386 24.4929 29.3283 24.4929 29.3283C24.4929 29.3283 23.2568 27.5386 23.2568 26.8558Z" fill="#EBEBEC"/>
<path d="M23.2568 20.7468C23.2568 20.064 23.8105 19.5107 24.4929 19.5107C25.1753 19.5107 25.729 20.0644 25.729 20.7468C25.729 21.4296 24.4929 23.2193 24.4929 23.2193C24.4929 23.2193 23.2568 21.4296 23.2568 20.7468Z" fill="white"/>
<path d="M16.3477 22.492C16.3477 21.8092 16.9013 21.256 17.5838 21.256C18.2666 21.256 18.8198 21.8096 18.8198 22.492C18.8203 23.1748 17.5842 24.9645 17.5842 24.9645C17.5842 24.9645 16.3477 23.1748 16.3477 22.492Z" fill="white"/>
<path d="M23.2568 33.6186C23.2568 32.9362 23.8101 32.3826 24.4929 32.3826C25.1758 32.3826 25.729 32.9362 25.729 33.6186C25.729 34.3014 24.4929 36.0911 24.4929 36.0911C24.4929 36.0911 23.2568 34.3014 23.2568 33.6186Z" fill="#EBEBEC"/>
</g>
<defs>
<clipPath id="clip0_2314_20979">
<rect width="48" height="47.9977" fill="white" transform="translate(0.493164 0.966064)"/>
</clipPath>
</defs>
</svg>
