<svg width="24" height="24" viewBox="0 0 24 24" fill="none" xmlns="http://www.w3.org/2000/svg">
<g clip-path="url(#clip0_5303_11231)">
<path d="M11.9933 1C11.6553 1.33843 11.4655 1.7972 11.4655 2.27552C11.4655 2.75385 11.6553 3.21261 11.9933 3.55104C12.3313 3.88931 12.5211 4.34792 12.5211 4.82609C12.5211 5.30425 12.3313 5.76286 11.9933 6.10113C11.6553 6.43956 11.4655 6.89833 11.4655 7.37665C11.4655 7.85498 11.6553 8.31374 11.9933 8.65217" stroke="#191919" stroke-linecap="round" stroke-linejoin="round"/>
<path d="M7.68865 1C7.35063 1.33843 7.16077 1.7972 7.16077 2.27552C7.16077 2.75385 7.35063 3.21261 7.68865 3.55104C8.02662 3.88931 8.21646 4.34792 8.21646 4.82609C8.21646 5.30425 8.02662 5.76286 7.68865 6.10113C7.35063 6.43956 7.16077 6.89833 7.16077 7.37665C7.16077 7.85498 7.35063 8.31374 7.68865 8.65217" stroke="#191919" stroke-linecap="round" stroke-linejoin="round"/>
<path d="M16.2975 1C15.9595 1.33843 15.7697 1.7972 15.7697 2.27552C15.7697 2.75385 15.9595 3.21261 16.2975 3.55104C16.6355 3.88931 16.8253 4.34792 16.8253 4.82609C16.8253 5.30425 16.6355 5.76286 16.2975 6.10113C15.9595 6.43956 15.7697 6.89833 15.7697 7.37665C15.7697 7.85498 15.9595 8.31374 16.2975 8.65217" stroke="#191919" stroke-linecap="round" stroke-linejoin="round"/>
<path d="M22.9928 12.9565C22.9928 18.6957 17.7319 23 11.9928 23C6.25367 23 0.992798 18.6957 0.992798 12.9565" fill="#C9F7CA"/>
<path d="M11.9928 18.3255C10.0493 18.3383 8.13513 17.8512 6.43412 16.911C4.73311 15.9708 3.30238 14.609 2.27932 12.9565H0.992798C0.992798 18.6957 6.25367 23 11.9928 23C17.7319 23 22.9928 18.6957 22.9928 12.9565H21.7063C20.6831 14.609 19.2524 15.9707 17.5514 16.9108C15.8504 17.851 13.9363 18.3382 11.9928 18.3255Z" fill="#78EB7B"/>
<path d="M22.9928 12.9565C22.9928 18.6957 17.7319 23 11.9928 23C6.25367 23 0.992798 18.6957 0.992798 12.9565" stroke="#191919" stroke-linecap="round" stroke-linejoin="round"/>
<path d="M11.9928 14.8695C18.0677 14.8695 22.9928 14.0087 22.9928 12.9565C22.9928 11.9043 18.0677 11.0435 11.9928 11.0435C5.91793 11.0435 0.992798 11.9043 0.992798 12.9565C0.992798 14.0087 5.91793 14.8695 11.9928 14.8695Z" fill="#FFBC44" stroke="#191919" stroke-linecap="round" stroke-linejoin="round"/>
</g>
<defs>
<clipPath id="clip0_5303_11231">
<rect width="24" height="24" fill="white" transform="translate(-0.00720215)"/>
</clipPath>
</defs>
</svg>
