<svg width="49" height="49" viewBox="0 0 49 49" fill="none" xmlns="http://www.w3.org/2000/svg">
<g clip-path="url(#clip0_2314_20922)">
<path d="M24.4932 48.9638C37.7481 48.9638 48.4932 38.2193 48.4932 24.9649C48.4932 11.7106 37.7481 0.966064 24.4932 0.966064C11.2382 0.966064 0.493164 11.7106 0.493164 24.9649C0.493164 38.2193 11.2382 48.9638 24.4932 48.9638Z" fill="#608DFF" fill-opacity="0.5"/>
<path d="M24.4932 38.928C32.205 38.928 38.4568 32.6765 38.4568 24.9651C38.4568 17.2536 32.205 11.0021 24.4932 11.0021C16.7813 11.0021 10.5295 17.2536 10.5295 24.9651C10.5295 32.6765 16.7813 38.928 24.4932 38.928Z" fill="#FACB1B"/>
<path d="M10.5295 24.9651C10.5295 32.6765 16.7813 38.928 24.4932 38.928V11.0021C16.7813 11.0021 10.5295 17.2536 10.5295 24.9651Z" fill="#FBE158"/>
<path d="M24.493 34.9357C20.2734 34.9357 17.3506 32.0929 16.2833 30.238C16.1917 30.0795 16.1436 29.8996 16.1436 29.7165C16.1436 29.5335 16.1918 29.3536 16.2833 29.1951C16.3748 29.0366 16.5065 28.9049 16.6651 28.8134C16.8236 28.7219 17.0035 28.6737 17.1866 28.6737H31.7995C31.9824 28.6739 32.1621 28.7222 32.3205 28.8136C32.4789 28.9051 32.6106 29.0365 32.7023 29.1948C32.7939 29.3531 32.8424 29.5327 32.8429 29.7156C32.8434 29.8985 32.7958 30.0784 32.705 30.2371C31.6372 32.092 28.7135 34.9357 24.493 34.9357Z" fill="#FA5655"/>
<path d="M24.9292 29.5464H24.0569V32.6528C24.0569 32.8649 24.2501 33.0368 24.4887 33.0368H24.4974C24.7359 33.0368 24.9292 32.8649 24.9292 32.6528V29.5464Z" fill="#FA5655"/>
<path d="M22.0934 23.2196C21.9198 23.2196 21.7533 23.1506 21.6306 23.0279C21.5078 22.9051 21.4388 22.7386 21.4388 22.5651C21.4388 21.0012 20.1664 19.7288 18.6025 19.7288C17.8505 19.7298 17.1296 20.0289 16.5979 20.5606C16.0662 21.0923 15.767 21.8131 15.7661 22.5651C15.7661 22.7386 15.6972 22.9051 15.5744 23.0279C15.4517 23.1506 15.2852 23.2196 15.1116 23.2196C14.938 23.2196 14.7715 23.1506 14.6487 23.0279C14.526 22.9051 14.457 22.7386 14.457 22.5651C14.457 20.2795 16.3168 18.4198 18.6025 18.4198C20.8882 18.4198 22.7479 20.2795 22.7479 22.5651C22.7479 22.7386 22.679 22.9051 22.5562 23.0279C22.4335 23.1506 22.267 23.2196 22.0934 23.2196Z" fill="#9C6144"/>
<path d="M33.8751 23.2196C33.7015 23.2196 33.535 23.1506 33.4123 23.0279C33.2895 22.9051 33.2206 22.7386 33.2206 22.5651C33.2206 21.0012 31.9482 19.7288 30.3842 19.7288C29.6323 19.7298 28.9114 20.0289 28.3796 20.5606C27.8479 21.0923 27.5488 21.8131 27.5479 22.5651C27.5479 22.7386 27.4789 22.9051 27.3561 23.0279C27.2334 23.1506 27.0669 23.2196 26.8933 23.2196C26.7197 23.2196 26.5532 23.1506 26.4305 23.0279C26.3077 22.9051 26.2388 22.7386 26.2388 22.5651C26.2388 20.2795 28.0986 18.4198 30.3842 18.4198C32.6699 18.4198 34.5297 20.2795 34.5297 22.5651C34.5297 22.7386 34.4607 22.9051 34.338 23.0279C34.2152 23.1506 34.0487 23.2196 33.8751 23.2196Z" fill="#9C6144"/>
</g>
<defs>
<clipPath id="clip0_2314_20922">
<rect width="48" height="47.9977" fill="white" transform="translate(0.493164 0.966064)"/>
</clipPath>
</defs>
</svg>
