<svg width="24" height="25" viewBox="0 0 24 25" fill="none" xmlns="http://www.w3.org/2000/svg">
<g clip-path="url(#clip0_5303_11685)">
<path d="M15.502 23.0384C19.5519 23.0384 22.835 19.7553 22.835 15.7054C22.835 11.6555 19.5519 8.37231 15.502 8.37231C11.4521 8.37231 8.16895 11.6555 8.16895 15.7054C8.16895 19.7553 11.4521 23.0384 15.502 23.0384Z" fill="#D480FF"/>
<path d="M10.5332 17.9053C10.5331 16.6157 10.8731 15.3489 11.5188 14.2327C12.1646 13.1164 13.0932 12.1902 14.2112 11.5474C15.3291 10.9046 16.5969 10.568 17.8864 10.5716C19.176 10.5751 20.4418 10.9187 21.5562 11.5676C20.9354 10.6595 20.1181 9.90277 19.1651 9.35341C18.212 8.80405 17.1475 8.47616 16.0506 8.39401C14.9537 8.31186 13.8522 8.47756 12.828 8.87884C11.8038 9.28012 10.8829 9.9067 10.1337 10.7122C9.38446 11.5177 8.82605 12.4813 8.49981 13.5319C8.17358 14.5825 8.08788 15.6929 8.24907 16.7811C8.41025 17.8693 8.8142 18.9072 9.43097 19.8181C10.0478 20.729 10.8615 21.4894 11.8121 22.0431C10.977 20.825 10.5311 19.3822 10.5332 17.9053Z" fill="#EABFFF"/>
<path d="M7.58512 22.7256C7.49351 22.8243 7.38247 22.9031 7.25897 22.957C7.13547 23.0108 7.00218 23.0386 6.86745 23.0385H4.58248C4.44792 23.0385 4.31482 23.0106 4.1915 22.9568C4.06817 22.9029 3.9573 22.8242 3.86579 22.7256C-1.00335 17.4712 1.84969 12.7096 3.64678 9.54174C3.91732 8.7221 3.91389 7.83669 3.637 7.01917C3.2987 5.15657 2.79223 1.03931 5.72545 1.03931C8.65867 1.03931 8.15612 5.15266 7.81293 7.01232C7.53534 7.83246 7.53225 8.72067 7.80413 9.54272C9.60024 12.7096 12.4562 17.4712 7.58512 22.7256Z" fill="#E3E3E3"/>
<path d="M5.64416 1.04126C2.80089 1.11655 3.29759 5.17417 3.63588 7.01916C3.91277 7.83669 3.9162 8.72209 3.64566 9.54173C1.84857 12.7096 -1.00643 17.4712 3.86467 22.7256C3.95618 22.8242 4.06706 22.903 4.19038 22.9567C4.3137 23.0106 4.4468 23.0384 4.58136 23.0385H5.64416V1.04126Z" fill="white"/>
<path d="M7.58512 22.7256C7.49351 22.8243 7.38247 22.9031 7.25897 22.957C7.13547 23.0108 7.00218 23.0386 6.86745 23.0385H4.58248C4.44792 23.0385 4.31482 23.0106 4.1915 22.9568C4.06817 22.9029 3.9573 22.8242 3.86579 22.7256C-1.00335 17.4712 1.84969 12.7096 3.64678 9.54174C3.91732 8.7221 3.91389 7.83669 3.637 7.01917C3.2987 5.15657 2.79223 1.03931 5.72545 1.03931C8.65867 1.03931 8.15612 5.15266 7.81293 7.01232C7.53534 7.83246 7.53225 8.72067 7.80413 9.54272C9.60024 12.7096 12.4562 17.4712 7.58512 22.7256Z" stroke="#191919" stroke-linecap="round" stroke-linejoin="round"/>
<path d="M7.81277 7.01232C7.84601 6.83339 7.88023 6.63295 7.91054 6.41687H3.53613C3.5684 6.63491 3.6036 6.83828 3.63391 7.01916C3.86491 7.77506 3.89856 8.5775 3.73168 9.35009H7.71402C7.54657 8.57521 7.58057 7.77033 7.81277 7.01232Z" fill="#FF808C" stroke="#191919" stroke-linecap="round" stroke-linejoin="round"/>
<path d="M10.5889 10.2631C11.6207 9.33167 12.896 8.7126 14.2663 8.47819C15.6365 8.24377 17.0452 8.40366 18.3281 8.93924C19.6109 9.47481 20.715 10.3639 21.5118 11.5031C22.3086 12.6422 22.7653 13.9843 22.8283 15.3731C22.8915 16.7618 22.5587 18.1398 21.8685 19.3465C21.1784 20.5533 20.1595 21.539 18.9306 22.1888C17.7016 22.8386 16.3133 23.1257 14.9275 23.0166C13.5415 22.9076 12.2152 22.4068 11.1032 21.5727" stroke="#191919" stroke-linecap="round" stroke-linejoin="round"/>
<path d="M14.5236 12.7722C15.0636 12.7722 15.5014 12.3345 15.5014 11.7944C15.5014 11.2544 15.0636 10.8167 14.5236 10.8167C13.9836 10.8167 13.5459 11.2544 13.5459 11.7944C13.5459 12.3345 13.9836 12.7722 14.5236 12.7722Z" fill="#808080" stroke="#191919" stroke-linecap="round" stroke-linejoin="round"/>
<path d="M18.4348 13.7499C18.9748 13.7499 19.4125 13.3122 19.4125 12.7722C19.4125 12.2322 18.9748 11.7944 18.4348 11.7944C17.8948 11.7944 17.457 12.2322 17.457 12.7722C17.457 13.3122 17.8948 13.7499 18.4348 13.7499Z" fill="#808080" stroke="#191919" stroke-linecap="round" stroke-linejoin="round"/>
<path d="M15.5022 16.6831C16.0422 16.6831 16.4799 16.2454 16.4799 15.7054C16.4799 15.1654 16.0422 14.7277 15.5022 14.7277C14.9621 14.7277 14.5244 15.1654 14.5244 15.7054C14.5244 16.2454 14.9621 16.6831 15.5022 16.6831Z" fill="#808080" stroke="#191919" stroke-linecap="round" stroke-linejoin="round"/>
</g>
<defs>
<clipPath id="clip0_5303_11685">
<rect width="24" height="24" fill="white" transform="translate(0 0.0393066)"/>
</clipPath>
</defs>
</svg>
