<svg width="49" height="48" viewBox="0 0 49 48" fill="none" xmlns="http://www.w3.org/2000/svg">
<g clip-path="url(#clip0_2314_22879)">
<path d="M24.4932 47.9932C37.7481 47.9932 48.4932 37.2487 48.4932 23.9944C48.4932 10.74 37.7481 -0.0045166 24.4932 -0.0045166C11.2382 -0.0045166 0.493164 10.74 0.493164 23.9944C0.493164 37.2487 11.2382 47.9932 24.4932 47.9932Z" fill="#009F1D" fill-opacity="0.5"/>
<path d="M38.4568 35.3395C38.4568 35.5709 38.3649 35.7929 38.2012 35.9565C38.0375 36.1202 37.8156 36.2122 37.5841 36.2122H11.4023C11.1708 36.2122 10.9488 36.1202 10.7852 35.9565C10.6215 35.7929 10.5295 35.5709 10.5295 35.3395V17.8857C10.5295 17.6543 10.6215 17.4323 10.7852 17.2687C10.9488 17.105 11.1708 17.0131 11.4023 17.0131H21.0023V16.1404C21.0023 15.9089 21.0942 15.6869 21.2579 15.5233C21.4216 15.3596 21.6435 15.2677 21.875 15.2677H37.5841C37.8156 15.2677 38.0375 15.3596 38.2012 15.5233C38.3649 15.6869 38.4568 15.9089 38.4568 16.1404V35.3395Z" fill="#F0F1F1"/>
<path d="M21.875 15.2677C21.6435 15.2677 21.4216 15.3596 21.2579 15.5233C21.0942 15.6869 21.0023 15.9089 21.0023 16.1404V17.0131H11.4023C11.1708 17.0131 10.9488 17.105 10.7852 17.2687C10.6215 17.4323 10.5295 17.6543 10.5295 17.8857V35.3395C10.5295 35.4769 10.564 35.6052 10.6207 35.7208L31.0749 15.2677H21.875Z" fill="white"/>
<path d="M18.384 17.0131H12.2749V15.704C12.2749 15.5883 12.3209 15.4773 12.4027 15.3955C12.4845 15.3137 12.5955 15.2677 12.7113 15.2677H17.9476C18.0634 15.2677 18.1744 15.3137 18.2562 15.3955C18.338 15.4773 18.384 15.5883 18.384 15.704V17.0131Z" fill="white"/>
<path d="M36.7115 20.0674C36.7115 20.1831 36.6655 20.2941 36.5837 20.3759C36.5018 20.4577 36.3908 20.5037 36.2751 20.5037H31.9115C31.7957 20.5037 31.6847 20.4577 31.6029 20.3759C31.5211 20.2941 31.4751 20.1831 31.4751 20.0674V17.4493C31.4751 17.3336 31.5211 17.2226 31.6029 17.1408C31.6847 17.0589 31.7957 17.013 31.9115 17.013H36.2751C36.3908 17.013 36.5018 17.0589 36.5837 17.1408C36.6655 17.2226 36.7115 17.3336 36.7115 17.4493V20.0674Z" fill="#40C9E7"/>
<path d="M14.8934 20.5045C15.1249 20.5045 15.3469 20.4125 15.5106 20.2488C15.6743 20.0851 15.7663 19.8631 15.7663 19.6316C15.7663 19.4001 15.6743 19.1781 15.5106 19.0144C15.3469 18.8507 15.1249 18.7588 14.8934 18.7588C14.6619 18.7588 14.4399 18.8507 14.2762 19.0144C14.1125 19.1781 14.0205 19.4001 14.0205 19.6316C14.0205 19.8631 14.1125 20.0851 14.2762 20.2488C14.4399 20.4125 14.6619 20.5045 14.8934 20.5045Z" fill="#5B5C5F"/>
<path d="M14.0202 15.2677H13.1477V17.0134H14.0202V15.2677Z" fill="#E2E4E5"/>
<path d="M15.7658 15.2677H14.8933V17.0134H15.7658V15.2677Z" fill="#E2E4E5"/>
<path d="M17.5112 15.2677H16.6387V17.0134H17.5112V15.2677Z" fill="#E2E4E5"/>
<path d="M38.4568 22.2493H10.5295V34.4669H38.4568V22.2493Z" fill="#3E3E3F"/>
<path d="M10.5295 22.2493V34.4669H11.8749L24.093 22.2493H10.5295Z" fill="#5B5C5F"/>
<path d="M26.2387 34.467C30.0948 34.467 33.2205 31.3415 33.2205 27.4855C33.2205 23.6296 30.0948 20.504 26.2387 20.504C22.3825 20.504 19.2568 23.6296 19.2568 27.4855C19.2568 31.3415 22.3825 34.467 26.2387 34.467Z" fill="white"/>
<path d="M26.2386 32.7216C29.1303 32.7216 31.4749 30.3771 31.4749 27.4854C31.4749 24.5938 29.1303 22.2493 26.2386 22.2493C23.3468 22.2493 21.0022 24.5938 21.0022 27.4854C21.0022 30.3771 23.3468 32.7216 26.2386 32.7216Z" fill="#21B2D1"/>
<path d="M26.2386 22.2493C23.3468 22.2493 21.0022 24.5938 21.0022 27.4854C21.0022 28.942 21.5978 30.2584 22.5574 31.2079L29.9607 23.8049C29.4746 23.3115 28.8951 22.9199 28.2561 22.6528C27.617 22.3858 26.9312 22.2486 26.2386 22.2493Z" fill="#40C9E7"/>
<path d="M17.5112 30.103C17.5112 30.3344 17.4192 30.5564 17.2556 30.72C17.0919 30.8837 16.8699 30.9756 16.6385 30.9756C16.4071 30.9756 16.1851 30.8837 16.0215 30.72C15.8578 30.5564 15.7659 30.3344 15.7659 30.103V28.3578C15.7659 28.1264 15.8578 27.9044 16.0215 27.7408C16.1851 27.5771 16.4071 27.4852 16.6385 27.4852C16.8699 27.4852 17.0919 27.5771 17.2556 27.7408C17.4192 27.9044 17.5112 28.1264 17.5112 28.3578V30.103Z" fill="#818284"/>
</g>
<defs>
<clipPath id="clip0_2314_22879">
<rect width="48" height="47.9977" fill="white" transform="translate(0.493164 -0.0045166)"/>
</clipPath>
</defs>
</svg>
