<svg width="24" height="25" viewBox="0 0 24 25" fill="none" xmlns="http://www.w3.org/2000/svg">
<g clip-path="url(#clip0_5303_10510)">
<path d="M22.9929 3.2187V19.7187C22.824 18.9375 22.4522 18.2146 21.9149 17.6228C21.3776 17.031 20.6939 16.5912 19.9326 16.3478C19.1712 16.1043 18.3592 16.0659 17.5782 16.2361C16.7973 16.4065 16.075 16.7795 15.4842 17.3179C14.5305 16.1411 13.2753 15.2451 11.8524 14.7257C10.4295 14.2063 8.8923 14.0829 7.40475 14.3686C5.91721 14.6543 4.53511 15.3385 3.4059 16.3481C2.27669 17.3578 1.44271 18.6549 0.99292 20.1013V3.2187C0.99443 2.71179 1.19647 2.22609 1.5549 1.86764C1.91335 1.50921 2.39905 1.30717 2.90596 1.30566H21.0798C21.5867 1.30717 22.0724 1.50921 22.4309 1.86764C22.7893 2.22609 22.9914 2.71179 22.9929 3.2187Z" fill="#66E1FF"/>
<path d="M21.0798 1.30566H2.90596C2.39905 1.30717 1.91335 1.50921 1.5549 1.86764C1.19647 2.22609 0.99443 2.71179 0.99292 3.2187V20.1013C1.51008 18.4479 2.5272 16.9955 3.90416 15.9442C5.28112 14.8929 6.95017 14.2944 8.68144 14.2312L21.5438 1.36975C21.3924 1.32892 21.2365 1.30739 21.0798 1.30566Z" fill="#C2F3FF"/>
<path d="M22.9929 3.2187V19.7187C22.824 18.9375 22.4522 18.2146 21.9149 17.6228C21.3776 17.031 20.6939 16.5912 19.9326 16.3478C19.1712 16.1043 18.3592 16.0659 17.5782 16.2361C16.7973 16.4065 16.075 16.7795 15.4842 17.3179C14.5305 16.1411 13.2753 15.2451 11.8524 14.7257C10.4295 14.2063 8.8923 14.0829 7.40475 14.3686C5.91721 14.6543 4.53511 15.3385 3.4059 16.3481C2.27669 17.3578 1.44271 18.6549 0.99292 20.1013V3.2187C0.99443 2.71179 1.19647 2.22609 1.5549 1.86764C1.91335 1.50921 2.39905 1.30717 2.90596 1.30566H21.0798C21.5867 1.30717 22.0724 1.50921 22.4309 1.86764C22.7893 2.22609 22.9914 2.71179 22.9929 3.2187Z" stroke="#191919" stroke-linecap="round" stroke-linejoin="round"/>
<path d="M16.2973 10.3926C17.618 10.3926 18.6886 9.32197 18.6886 8.0013C18.6886 6.68062 17.618 5.60999 16.2973 5.60999C14.9766 5.60999 13.906 6.68062 13.906 8.0013C13.906 9.32197 14.9766 10.3926 16.2973 10.3926Z" fill="#FFEF5E"/>
<path d="M16.2971 3.69701V3.21875" stroke="#191919" stroke-linecap="round" stroke-linejoin="round"/>
<path d="M13.2529 4.95763L12.9143 4.61902" stroke="#191919" stroke-linecap="round" stroke-linejoin="round"/>
<path d="M11.9922 8.00134H11.5139" stroke="#191919" stroke-linecap="round" stroke-linejoin="round"/>
<path d="M13.2529 11.0449L12.9143 11.3835" stroke="#191919" stroke-linecap="round" stroke-linejoin="round"/>
<path d="M16.2971 12.3057V12.784" stroke="#191919" stroke-linecap="round" stroke-linejoin="round"/>
<path d="M19.3406 11.0449L19.6792 11.3835" stroke="#191919" stroke-linecap="round" stroke-linejoin="round"/>
<path d="M20.6013 8.00134H21.0796" stroke="#191919" stroke-linecap="round" stroke-linejoin="round"/>
<path d="M19.3406 4.95763L19.6792 4.61902" stroke="#191919" stroke-linecap="round" stroke-linejoin="round"/>
<path d="M22.9929 19.7187V21.3927C22.9914 21.8995 22.7893 22.3852 22.4309 22.7437C22.0724 23.1022 21.5867 23.3042 21.0798 23.3057H2.90596C2.39905 23.3042 1.91335 23.1022 1.5549 22.7437C1.19647 22.3852 0.99443 21.8995 0.99292 21.3927V20.1014C1.44271 18.6549 2.27669 17.3578 3.4059 16.3482C4.53511 15.3385 5.91721 14.6543 7.40475 14.3686C8.8923 14.0829 10.4295 14.2063 11.8524 14.7257C13.2753 15.2451 14.5305 16.1411 15.4842 17.3179C16.075 16.7795 16.7973 16.4065 17.5782 16.2361C18.3592 16.0659 19.1712 16.1043 19.9326 16.3478C20.6939 16.5912 21.3776 17.031 21.9149 17.6227C22.4522 18.2145 22.824 18.9375 22.9929 19.7187Z" fill="#78EB7B"/>
<path d="M22.9929 19.7187V21.3927C22.9914 21.8995 22.7893 22.3852 22.4309 22.7437C22.0724 23.1022 21.5867 23.3042 21.0798 23.3057H2.90596C2.39905 23.3042 1.91335 23.1022 1.5549 22.7437C1.19647 22.3852 0.99443 21.8995 0.99292 21.3927V20.1014C1.44271 18.6549 2.27669 17.3578 3.4059 16.3482C4.53511 15.3385 5.91721 14.6543 7.40475 14.3686C8.8923 14.0829 10.4295 14.2063 11.8524 14.7257C13.2753 15.2451 14.5305 16.1411 15.4842 17.3179C16.075 16.7795 16.7973 16.4065 17.5782 16.2361C18.3592 16.0659 19.1712 16.1043 19.9326 16.3478C20.6939 16.5912 21.3776 17.031 21.9149 17.6227C22.4522 18.2145 22.824 18.9375 22.9929 19.7187Z" stroke="#191919" stroke-linecap="round" stroke-linejoin="round"/>
<path d="M16.7845 19.5561C16.4749 18.7445 16.0355 17.9887 15.4836 17.3179" stroke="#191919" stroke-linecap="round" stroke-linejoin="round"/>
<path d="M16.2973 10.3926C17.618 10.3926 18.6886 9.32197 18.6886 8.0013C18.6886 6.68062 17.618 5.60999 16.2973 5.60999C14.9766 5.60999 13.906 6.68062 13.906 8.0013C13.906 9.32197 14.9766 10.3926 16.2973 10.3926Z" stroke="#191919" stroke-linecap="round" stroke-linejoin="round"/>
</g>
<defs>
<clipPath id="clip0_5303_10510">
<rect width="24" height="24" fill="white" transform="translate(-0.00708008 0.305664)"/>
</clipPath>
</defs>
</svg>
