<svg width="49" height="48" viewBox="0 0 49 48" fill="none" xmlns="http://www.w3.org/2000/svg">
<g clip-path="url(#clip0_2314_23052)">
<path d="M24.4932 47.9955C37.7481 47.9955 48.4932 37.251 48.4932 23.9966C48.4932 10.7423 37.7481 -0.0022583 24.4932 -0.0022583C11.2382 -0.0022583 0.493164 10.7423 0.493164 23.9966C0.493164 37.251 11.2382 47.9955 24.4932 47.9955Z" fill="#25D3BF" fill-opacity="0.5"/>
<path d="M13.4115 22.2515L16.5511 14.9261C16.6184 14.7691 16.7303 14.6353 16.873 14.5412C17.0156 14.4472 17.1828 14.3972 17.3536 14.3973H31.6336C31.9831 14.3973 32.2982 14.605 32.4357 14.9261L35.5753 22.2515H37.4743L34.0402 14.2385C33.8385 13.7673 33.5029 13.3657 33.075 13.0837C32.6471 12.8016 32.1457 12.6515 31.6332 12.6519H17.3536C16.8412 12.6516 16.3399 12.8017 15.9121 13.0838C15.4842 13.3658 15.1487 13.7674 14.9471 14.2385L11.5125 22.2515H13.4115Z" fill="#F0F1F1"/>
<path d="M38.4568 24.8696C38.4568 25.101 38.3649 25.323 38.2012 25.4866C38.0375 25.6503 37.8155 25.7422 37.5841 25.7422H11.4023C11.1708 25.7422 10.9488 25.6503 10.7852 25.4866C10.6215 25.323 10.5295 25.101 10.5295 24.8696V23.1242C10.5295 22.8927 10.6215 22.6708 10.7852 22.5071C10.9488 22.3434 11.1708 22.2515 11.4023 22.2515H37.5841C37.8155 22.2515 38.0375 22.3434 38.2012 22.5071C38.3649 22.6708 38.4568 22.8927 38.4568 23.1242V24.8696Z" fill="#DF2C2C"/>
<path d="M11.4023 25.7421L14.5311 36.6943C14.7449 37.4448 15.43 37.9597 16.2111 37.9597H32.7754C33.5565 37.9597 34.2416 37.4448 34.4554 36.6943L37.5842 25.7421H11.4023ZM17.206 36.2143C16.7391 36.3321 16.2634 36.0529 16.1456 35.586L14.374 28.6219C14.2518 28.1551 14.5354 27.6794 15.0023 27.5616C15.4693 27.4395 15.9449 27.7231 16.0627 28.19L17.8343 35.154C17.9522 35.6209 17.6729 36.0965 17.206 36.2143ZM20.6882 36.2187C20.2082 36.2798 19.7718 35.9438 19.7107 35.4638L18.8118 28.4823C18.7887 28.2558 18.855 28.0292 18.9966 27.8508C19.1381 27.6724 19.3437 27.5563 19.5696 27.5273C19.7955 27.4983 20.0237 27.5586 20.2058 27.6955C20.3878 27.8323 20.5092 28.0348 20.5442 28.2598L21.4387 35.2369C21.5042 35.7169 21.1638 36.1532 20.6882 36.2187ZM25.366 35.3416C25.366 35.8216 24.9733 36.2143 24.4933 36.2143C24.0133 36.2143 23.6205 35.8216 23.6205 35.3416V28.3601C23.6205 27.8802 24.0133 27.4875 24.4933 27.4875C24.9733 27.4875 25.366 27.8802 25.366 28.3601V35.3416ZM30.1922 28.4649L29.2758 35.4638C29.2614 35.5776 29.2247 35.6875 29.1677 35.7871C29.1108 35.8868 29.0347 35.9741 28.9439 36.0443C28.8531 36.1144 28.7493 36.1659 28.6385 36.1959C28.5277 36.2258 28.4121 36.2335 28.2983 36.2187C28.0687 36.1879 27.8607 36.0672 27.7199 35.8831C27.5792 35.699 27.5173 35.4666 27.5478 35.2369L28.4598 28.2423C28.4947 28.0173 28.6161 27.8148 28.7982 27.678C28.9802 27.5412 29.2085 27.4809 29.4344 27.5099C29.6602 27.5389 29.8659 27.6549 30.0074 27.8333C30.149 28.0117 30.2152 28.2383 30.1922 28.4649ZM32.8409 35.586C32.8125 35.6969 32.7626 35.8011 32.694 35.8926C32.6253 35.9842 32.5393 36.0614 32.4408 36.1197C32.3424 36.1781 32.2334 36.2165 32.1201 36.2327C32.0068 36.2489 31.8914 36.2427 31.7805 36.2143C31.6696 36.186 31.5654 36.136 31.4738 36.0674C31.3823 35.9988 31.3051 35.9128 31.2467 35.8143C31.1884 35.7158 31.15 35.6068 31.1338 35.4936C31.1175 35.3803 31.1238 35.2649 31.1522 35.154L33.0896 28.1725C33.118 28.0616 33.1679 27.9574 33.2365 27.8658C33.3052 27.7742 33.3912 27.697 33.4896 27.6387C33.5881 27.5803 33.6971 27.542 33.8104 27.5258C33.9237 27.5095 34.0391 27.5158 34.15 27.5442C34.6169 27.662 34.9005 28.1376 34.7783 28.6045L32.8409 35.586Z" fill="#BF0302"/>
<path d="M10.5295 23.1242V24.8696C10.5295 25.101 10.6215 25.323 10.7852 25.4866C10.9488 25.6503 11.1708 25.7422 11.4023 25.7422H26.6964L30.1873 22.2515H11.4023C11.1708 22.2515 10.9488 22.3434 10.7852 22.5071C10.6215 22.6708 10.5295 22.8927 10.5295 23.1242Z" fill="#FA5655"/>
<path d="M16.1456 35.586L14.374 28.6219C14.2518 28.1551 14.5354 27.6794 15.0023 27.5616C15.4693 27.4395 15.9449 27.7231 16.0627 28.19L17.7226 34.715L19.3983 33.0395L18.8118 28.4823C18.7887 28.2558 18.855 28.0292 18.9966 27.8508C19.1381 27.6724 19.3437 27.5563 19.5696 27.5273C19.7955 27.4983 20.0237 27.5586 20.2058 27.6955C20.3878 27.8323 20.5092 28.0348 20.5442 28.2598L20.957 31.4809L23.6205 28.8179V28.3601C23.6205 27.8802 24.0133 27.4875 24.4933 27.4875C24.6263 27.4875 24.7511 27.5202 24.8646 27.5738L26.6965 25.7421H11.4023L14.5311 36.6943C14.6157 36.9906 14.7754 37.2485 14.984 37.454L16.414 36.0241C16.282 35.9088 16.1883 35.756 16.1456 35.586Z" fill="#DF2C2C"/>
<path d="M29.7296 13.5242C29.7296 13.9871 29.5457 14.431 29.2183 14.7583C28.891 15.0856 28.447 15.2695 27.9841 15.2695H21.0023C20.5394 15.2695 20.0954 15.0856 19.7681 14.7583C19.4407 14.431 19.2568 13.9871 19.2568 13.5242C19.2568 13.0613 19.4407 12.6173 19.7681 12.29C20.0954 11.9627 20.5394 11.7788 21.0023 11.7788H27.9841C28.447 11.7788 28.891 11.9627 29.2183 12.29C29.5457 12.6173 29.7296 13.0613 29.7296 13.5242Z" fill="#3E3E3F"/>
<path d="M27.9841 11.7788H21.0023C20.5394 11.7788 20.0954 11.9627 19.7681 12.29C19.4407 12.6173 19.2568 13.0613 19.2568 13.5242H29.7296C29.7296 13.0613 29.5457 12.6173 29.2183 12.29C28.891 11.9627 28.447 11.7788 27.9841 11.7788Z" fill="#5B5C5F"/>
</g>
<defs>
<clipPath id="clip0_2314_23052">
<rect width="48" height="47.9977" fill="white" transform="translate(0.493164 -0.0022583)"/>
</clipPath>
</defs>
</svg>
