<svg width="25" height="24" viewBox="0 0 25 24" fill="none" xmlns="http://www.w3.org/2000/svg">
<g clip-path="url(#clip0_5303_7231)">
<path d="M5.25977 8.65966L8.12933 2.92053" stroke="#191919" stroke-linecap="round" stroke-linejoin="round"/>
<path d="M20.5649 8.65966L17.6953 2.92053" stroke="#191919" stroke-linecap="round" stroke-linejoin="round"/>
<path d="M22.4776 11.5292H3.34717L4.97326 19.6663C5.07524 20.0846 5.31819 20.4549 5.66122 20.715C6.00425 20.9751 6.42641 21.1091 6.85665 21.0944H18.9681C19.3984 21.1091 19.8205 20.9751 20.1636 20.715C20.5066 20.4549 20.7495 20.0846 20.8515 19.6663L22.4776 11.5292Z" fill="#FFF9BF"/>
<path d="M21.941 14.2123L22.4776 11.5292H3.34717L3.88378 14.2123H21.941Z" fill="#FFEF5E"/>
<path d="M22.4776 11.5292H3.34717L4.97326 19.6663C5.07524 20.0846 5.31819 20.4549 5.66122 20.715C6.00425 20.9751 6.42641 21.1091 6.85665 21.0944H18.9681C19.3984 21.1091 19.8205 20.9751 20.1636 20.715C20.5066 20.4549 20.7495 20.0846 20.8515 19.6663L22.4776 11.5292Z" stroke="#191919" stroke-linecap="round" stroke-linejoin="round"/>
<path d="M22.9561 8.65967H2.86912C2.61544 8.65967 2.37214 8.76045 2.19276 8.93983C2.01338 9.11921 1.9126 9.36251 1.9126 9.61619V10.5728C1.9126 10.8264 2.01338 11.0697 2.19276 11.2491C2.37214 11.4285 2.61544 11.5293 2.86912 11.5293H22.9561C23.2098 11.5293 23.4531 11.4285 23.6324 11.2491C23.8118 11.0697 23.9126 10.8264 23.9126 10.5728V9.61619C23.9126 9.36251 23.8118 9.11921 23.6324 8.93983C23.4531 8.76045 23.2098 8.65967 22.9561 8.65967Z" fill="white" stroke="#191919" stroke-linecap="round" stroke-linejoin="round"/>
<path d="M12.9121 14.3988V17.7467" stroke="#191919" stroke-linecap="round" stroke-linejoin="round"/>
<path d="M17.2165 14.3988L16.7383 17.7467" stroke="#191919" stroke-linecap="round" stroke-linejoin="round"/>
<path d="M8.60791 14.3988L9.08617 17.7467" stroke="#191919" stroke-linecap="round" stroke-linejoin="round"/>
</g>
<defs>
<clipPath id="clip0_5303_7231">
<rect width="24" height="24" fill="white" transform="translate(0.912598 0.00805664)"/>
</clipPath>
</defs>
</svg>
