<svg width="1310" height="701" viewBox="0 0 1310 701" fill="none" xmlns="http://www.w3.org/2000/svg">
<g filter="url(#filter0_d_23_66)">
<path fill-rule="evenodd" clip-rule="evenodd" d="M509.462 79.6691L458.532 77L458.394 79.6353C439.778 91.5641 418.825 221.587 410.471 380.999C402.117 540.411 409.363 671.912 426.63 685.722L426.607 686.164L427.31 686.201C428.019 686.635 428.745 686.875 429.487 686.914C430.228 686.953 430.975 686.79 431.726 686.432L477.537 688.833L509.462 79.6691Z" fill="#B02727"/>
</g>
<g filter="url(#filter1_d_23_66)">
<path fill-rule="evenodd" clip-rule="evenodd" d="M793 79.6691L842.55 77L842.564 77.2673C861.337 76.4245 883.495 211.957 892.07 380.13C900.65 548.407 892.381 685.643 873.601 686.655C872.949 686.69 872.292 686.56 871.633 686.27L824.06 688.833L793 79.6691Z" fill="#B02727"/>
</g>
<g filter="url(#filter2_d_23_66)">
<rect x="625" y="74" width="56" height="144" fill="#B02727"/>
</g>
<g filter="url(#filter3_d_23_66)">
<path fill-rule="evenodd" clip-rule="evenodd" d="M353.43 234L955.57 234C957.294 212.999 962.841 194.035 971 179.136V178L337.368 178C345.872 193.065 351.662 212.461 353.43 234Z" fill="#B02727"/>
</g>
<path fill-rule="evenodd" clip-rule="evenodd" d="M415.79 689C411.935 660.503 409.276 618.829 408 568H484L479.196 689H415.79Z" fill="black"/>
<path fill-rule="evenodd" clip-rule="evenodd" d="M887.108 689C891.013 660.503 893.708 618.829 895 568H818L822.868 689H887.108Z" fill="black"/>
<g filter="url(#filter4_d_23_66)">
<rect x="240" y="41" width="828" height="42" fill="#B02727"/>
</g>
<g filter="url(#filter5_d_23_66)">
<path fill-rule="evenodd" clip-rule="evenodd" d="M654 34.1463C894.244 34.1463 1089 19.1315 1089 0.609756V50L219 50V0.609756C219 19.1315 413.756 34.1463 654 34.1463ZM219.07 0C219.024 0.202818 219 0.406075 219 0.609756V0L219.07 0ZM1088.93 0L1089 0V0.609756C1089 0.406075 1088.98 0.202818 1088.93 0Z" fill="black"/>
</g>
<rect x="634" y="108" width="39" height="97" fill="#6A0000" stroke="#D39817" stroke-width="2"/>
<path d="M643.084 118.72H664.06V120.424H643.084V118.72ZM652.516 116.464H654.364V138.52H652.516V116.464ZM651.94 130.192L653.452 130.864C652.892 131.616 652.236 132.352 651.484 133.072C650.732 133.792 649.924 134.472 649.06 135.112C648.212 135.736 647.332 136.304 646.42 136.816C645.508 137.328 644.612 137.768 643.732 138.136C643.636 137.992 643.516 137.824 643.372 137.632C643.228 137.44 643.076 137.248 642.916 137.056C642.772 136.88 642.628 136.736 642.484 136.624C643.348 136.32 644.228 135.944 645.124 135.496C646.036 135.032 646.916 134.52 647.764 133.96C648.612 133.384 649.396 132.776 650.116 132.136C650.836 131.496 651.444 130.848 651.94 130.192ZM654.964 130.216C655.492 130.888 656.116 131.544 656.836 132.184C657.572 132.808 658.372 133.408 659.236 133.984C660.1 134.544 660.988 135.056 661.9 135.52C662.812 135.968 663.708 136.336 664.588 136.624C664.46 136.752 664.316 136.904 664.156 137.08C663.996 137.272 663.844 137.464 663.7 137.656C663.556 137.848 663.428 138.024 663.316 138.184C662.436 137.832 661.532 137.392 660.604 136.864C659.692 136.352 658.796 135.776 657.916 135.136C657.052 134.496 656.244 133.816 655.492 133.096C654.74 132.376 654.076 131.64 653.5 130.888L654.964 130.216ZM646.924 127.504V129.832H660.268V127.504H646.924ZM646.924 123.88V126.16H660.268V123.88H646.924ZM645.172 122.44H662.116V131.272H645.172V122.44ZM643.06 148.224H663.988V149.952H643.06V148.224ZM652.492 145.416H654.388V149.112H652.492V145.416ZM647.788 153.72V157.68H659.332V153.72H647.788ZM646.012 152.136H661.228V159.264H646.012V152.136ZM657.988 161.472L659.596 160.68C660.14 161.208 660.7 161.784 661.276 162.408C661.868 163.032 662.42 163.648 662.932 164.256C663.444 164.848 663.86 165.384 664.18 165.864L662.452 166.8C662.164 166.32 661.764 165.776 661.252 165.168C660.756 164.544 660.22 163.912 659.644 163.272C659.068 162.616 658.516 162.016 657.988 161.472ZM652.516 158.592H654.388V165.432C654.388 165.96 654.316 166.36 654.172 166.632C654.028 166.904 653.74 167.112 653.308 167.256C652.892 167.384 652.332 167.456 651.628 167.472C650.94 167.504 650.068 167.52 649.012 167.52C648.964 167.264 648.876 166.976 648.748 166.656C648.636 166.352 648.516 166.072 648.388 165.816C648.948 165.832 649.468 165.84 649.948 165.84C650.444 165.84 650.868 165.84 651.22 165.84C651.588 165.84 651.844 165.84 651.988 165.84C652.196 165.824 652.332 165.784 652.396 165.72C652.476 165.656 652.516 165.544 652.516 165.384V158.592ZM646.996 160.656L648.82 161.256C648.452 161.88 648.004 162.52 647.476 163.176C646.964 163.832 646.412 164.456 645.82 165.048C645.244 165.64 644.652 166.168 644.044 166.632C643.868 166.44 643.636 166.24 643.348 166.032C643.06 165.84 642.812 165.688 642.604 165.576C643.196 165.144 643.772 164.656 644.332 164.112C644.892 163.568 645.404 163 645.868 162.408C646.332 161.8 646.708 161.216 646.996 160.656ZM643.636 177.224H652.036V178.832H643.636V177.224ZM646.156 193.472H652.9V194.984H646.156V193.472ZM646.156 189.488H652.924V190.928H646.156V189.488ZM642.532 181.712H654.94V183.32H642.532V181.712ZM647.332 174.632H649.012V182.72H647.332V174.632ZM653.692 175.256L655.324 175.76C654.012 178.752 652.308 181.392 650.212 183.68C648.132 185.952 645.772 187.816 643.132 189.272C643.068 189.144 642.964 188.992 642.82 188.816C642.692 188.624 642.556 188.432 642.412 188.24C642.268 188.048 642.132 187.904 642.004 187.808C644.628 186.496 646.94 184.776 648.94 182.648C650.94 180.52 652.524 178.056 653.692 175.256ZM646.708 185.648H652.828V187.136H646.708V196.4H645.076V186.704L646.06 185.648H646.708ZM652.132 185.648H653.86V196.064H652.132V185.648ZM655.972 175.808H663.124V177.512H657.748V196.52H655.972V175.808ZM662.692 175.808H663.028L663.316 175.736L664.612 176.552C664.116 177.704 663.556 178.928 662.932 180.224C662.324 181.504 661.724 182.704 661.132 183.824C661.996 184.56 662.652 185.272 663.1 185.96C663.548 186.632 663.86 187.272 664.036 187.88C664.228 188.488 664.324 189.08 664.324 189.656C664.324 190.408 664.228 191.056 664.036 191.6C663.86 192.144 663.548 192.552 663.1 192.824C662.684 193.112 662.14 193.296 661.468 193.376C661.148 193.408 660.788 193.424 660.388 193.424C659.988 193.424 659.596 193.416 659.212 193.4C659.196 193.144 659.14 192.848 659.044 192.512C658.964 192.176 658.844 191.88 658.684 191.624C659.084 191.656 659.46 191.68 659.812 191.696C660.164 191.696 660.468 191.688 660.724 191.672C660.948 191.672 661.156 191.648 661.348 191.6C661.54 191.552 661.708 191.488 661.852 191.408C662.124 191.248 662.316 191 662.428 190.664C662.54 190.328 662.588 189.944 662.572 189.512C662.572 188.744 662.34 187.912 661.876 187.016C661.412 186.104 660.548 185.12 659.284 184.064C659.604 183.44 659.924 182.784 660.244 182.096C660.564 181.392 660.876 180.696 661.18 180.008C661.484 179.32 661.764 178.664 662.02 178.04C662.276 177.416 662.5 176.864 662.692 176.384V175.808Z" fill="#FFCC00"/>
<g filter="url(#filter6_d_23_66)">
<path d="M32.0598 256.1L95.3598 257C128.16 257 152.16 255.8 167.36 253.4C169.56 257.6 170.66 262.4 170.66 267.8C170.66 273.2 168.26 278.1 163.46 282.5C158.66 286.7 152.86 288.8 146.06 288.8L111.56 284.9C111.56 286.3 111.06 292.5 110.06 303.5C107.26 330.5 105.86 357.6 105.86 384.8C105.86 412 107.96 439.2 112.16 466.4C105.56 468.8 98.6598 470 91.4598 470C84.2598 470 78.0598 468 72.8598 464C67.6598 459.8 65.0598 453.6 65.0598 445.4C65.0598 437 66.0598 422.3 68.0598 401.3C70.0598 380.3 71.0598 359.9 71.0598 340.1C71.0598 320.1 70.0598 301.5 68.0598 284.3C43.8598 285.5 24.9598 288.9 11.3598 294.5C8.95977 289.9 7.75977 284.8 7.75977 279.2C7.75977 273.4 10.0598 268.1 14.6598 263.3C19.2598 258.5 25.0598 256.1 32.0598 256.1ZM204.499 473.6C182.499 473.6 166.299 467.2 155.899 454.4C145.499 441.4 140.299 423.4 140.299 400.4C140.299 377.2 147.199 357.1 160.999 340.1C174.799 323.1 192.499 314.6 214.099 314.6C258.499 314.6 280.699 339.6 280.699 389.6C280.699 413 273.499 432.9 259.099 449.3C244.699 465.5 226.499 473.6 204.499 473.6ZM182.899 347.6C179.299 359.2 177.499 370.8 177.499 382.4C177.499 394 177.899 403 178.699 409.4C179.499 415.8 180.999 422.2 183.199 428.6C187.799 441.6 196.799 448.1 210.199 448.1C223.799 448.1 232.699 444.5 236.899 437.3C241.299 430.1 243.499 419 243.499 404C243.499 361.4 233.399 340.1 213.199 340.1C201.599 340.1 191.499 342.6 182.899 347.6ZM329.493 375.5C336.493 360.7 346.893 347.2 360.693 335C374.693 322.6 388.793 316.4 402.993 316.4C422.993 316.4 432.993 327 432.993 348.2C432.993 359 427.993 370.6 417.993 383C408.193 395.2 397.193 404.9 384.993 412.1C390.593 421.9 397.493 429.4 405.693 434.6C414.093 439.6 425.093 443.6 438.693 446.6C438.693 454.4 436.793 460.6 432.993 465.2C429.393 469.6 424.193 471.8 417.393 471.8C403.793 471.8 390.493 465.3 377.493 452.3C364.493 439.1 354.693 424.4 348.093 408.2C360.893 401.8 371.893 394.2 381.093 385.4C390.493 376.6 395.193 367.8 395.193 359C395.193 350.2 392.493 345.8 387.093 345.8C376.693 345.8 365.093 355.3 352.293 374.3C339.693 393.3 332.393 409.1 330.393 421.7C330.793 427.5 332.793 442.4 336.393 466.4C330.193 468.8 323.393 470 315.993 470C300.593 470 292.893 462.5 292.893 447.5C292.893 440.3 293.993 426.2 296.193 405.2C298.393 384 299.493 367 299.493 354.2C299.493 311.6 297.093 276.4 292.293 248.6C298.693 246.2 305.293 245 312.093 245C318.893 245 324.493 247.3 328.893 251.9C333.493 256.3 335.793 262.4 335.793 270.2C335.793 278 334.693 294.1 332.493 318.5C330.493 342.9 329.493 361.9 329.493 375.5ZM448.535 420.2L451.535 377C451.535 357.6 448.735 339.2 443.135 321.8C448.735 319.4 455.635 318.2 463.835 318.2C479.835 318.2 487.835 327.1 487.835 344.9C487.835 352.9 486.735 364.2 484.535 378.8C482.335 393.4 481.235 403.5 481.235 409.1C481.235 414.5 481.335 418.5 481.535 421.1C481.735 423.5 482.235 426.4 483.035 429.8C484.235 436.6 488.135 440 494.735 440C501.535 440 508.735 434.7 516.335 424.1C524.135 413.3 530.335 401.4 534.935 388.4C539.735 375.4 542.135 365.1 542.135 357.5C541.135 341.7 539.435 329.8 537.035 321.8C543.435 319.4 549.935 318.2 556.535 318.2C563.335 318.2 568.935 320.3 573.335 324.5C577.935 328.7 580.235 334.3 580.235 341.3C580.235 450.5 560.235 516 520.235 537.8C511.235 542.6 501.035 545 489.635 545C478.235 545 468.235 542 459.635 536C451.235 530 447.035 521.6 447.035 510.8C447.035 503.6 449.735 497.5 455.135 492.5C460.535 487.7 466.935 485.3 474.335 485.3C475.935 485.3 477.935 485.5 480.335 485.9C479.735 488.5 479.435 490.8 479.435 492.8C479.435 510.4 485.535 519.2 497.735 519.2C505.135 519.2 511.835 515.2 517.835 507.2C523.835 499.2 528.635 489.4 532.235 477.8C539.235 454.2 542.735 432.8 542.735 413.6C536.735 429.8 528.535 442.9 518.135 452.9C507.935 462.7 496.835 467.6 484.835 467.6C460.635 467.6 448.535 451.8 448.535 420.2ZM653.362 473.6C631.362 473.6 615.162 467.2 604.762 454.4C594.362 441.4 589.162 423.4 589.162 400.4C589.162 377.2 596.062 357.1 609.862 340.1C623.662 323.1 641.362 314.6 662.962 314.6C707.362 314.6 729.562 339.6 729.562 389.6C729.562 413 722.362 432.9 707.962 449.3C693.562 465.5 675.362 473.6 653.362 473.6ZM631.762 347.6C628.162 359.2 626.362 370.8 626.362 382.4C626.362 394 626.762 403 627.562 409.4C628.362 415.8 629.862 422.2 632.062 428.6C636.662 441.6 645.662 448.1 659.062 448.1C672.662 448.1 681.562 444.5 685.762 437.3C690.162 430.1 692.362 419 692.362 404C692.362 361.4 682.262 340.1 662.062 340.1C650.462 340.1 640.362 342.6 631.762 347.6ZM838.357 321.8C839.157 317.8 839.557 313.7 839.557 309.5C839.557 290.1 830.057 280.4 811.057 280.4C802.457 280.4 795.157 282.2 789.157 285.8C783.557 292.4 780.757 300.3 780.757 309.5C780.757 315.5 783.357 320.7 788.557 325.1C793.757 329.3 800.157 332.6 807.757 335C815.557 337.4 823.957 340.4 832.957 344C841.957 347.6 850.257 351.5 857.857 355.7C865.657 359.7 872.157 365.8 877.357 374C882.557 382 885.157 391.5 885.157 402.5C885.157 423.5 877.057 440.6 860.857 453.8C844.857 467 825.557 473.6 802.957 473.6C784.757 473.6 769.257 469.1 756.457 460.1C743.857 450.9 737.557 438.1 737.557 421.7C737.557 413.3 740.057 406.3 745.057 400.7C750.257 394.9 756.357 392 763.357 392C770.557 392 775.857 392.9 779.257 394.7C777.657 400.7 776.857 406.1 776.857 410.9C776.857 421.7 779.857 430.3 785.857 436.7C792.057 442.9 800.557 446 811.357 446C822.157 446 830.857 443.2 837.457 437.6C844.057 432 847.357 424.6 847.357 415.4C847.357 406 843.657 398.3 836.257 392.3C829.057 386.3 820.257 381.5 809.857 377.9C799.457 374.3 789.057 370.5 778.657 366.5C768.257 362.5 759.357 356.6 751.957 348.8C744.757 340.8 741.157 330.8 741.157 318.8C741.157 300 749.257 284.4 765.457 272C781.857 259.6 800.357 253.4 820.957 253.4C836.157 253.4 849.257 256.5 860.257 262.7C871.457 268.7 877.057 277.9 877.057 290.3C877.057 299.3 874.157 307 868.357 313.4C862.557 319.6 855.257 322.7 846.457 322.7C844.057 322.7 841.357 322.4 838.357 321.8ZM936.314 440.6C944.514 443.6 954.014 445.1 964.814 445.1C975.614 445.1 985.114 443 993.314 438.8C1003.11 422 1008.01 401.9 1008.01 378.5C1008.01 354.9 1003.91 343.1 995.714 343.1C985.514 343.1 974.014 353.4 961.214 374C948.614 394.6 940.314 416.8 936.314 440.6ZM936.314 379.1C957.514 337.3 981.014 316.4 1006.81 316.4C1020.41 316.4 1030.11 322 1035.91 333.2C1041.91 344.2 1044.91 358.2 1044.91 375.2C1044.91 399.6 1037.71 421.8 1023.31 441.8C1008.91 461.8 990.814 471.8 969.014 471.8C956.614 471.8 945.314 469.8 935.114 465.8C935.514 493.2 937.214 518.3 940.214 541.1C933.814 543.5 927.214 544.7 920.414 544.7C913.614 544.7 908.014 542.4 903.614 537.8C899.214 533.4 897.014 526.6 897.014 517.4C897.014 508.2 898.214 492.5 900.614 470.3C903.014 448.1 904.214 430.7 904.214 418.1C904.214 376.5 902.014 344.4 897.614 321.8C904.014 319.4 910.714 318.2 917.714 318.2C924.914 318.2 930.414 320.3 934.214 324.5C938.214 328.5 940.214 334.9 940.214 343.7C940.214 352.3 938.914 364.1 936.314 379.1ZM1112.19 473.6C1090.19 473.6 1073.99 467.2 1063.59 454.4C1053.19 441.4 1047.99 423.4 1047.99 400.4C1047.99 377.2 1054.89 357.1 1068.69 340.1C1082.49 323.1 1100.19 314.6 1121.79 314.6C1166.19 314.6 1188.39 339.6 1188.39 389.6C1188.39 413 1181.19 432.9 1166.79 449.3C1152.39 465.5 1134.19 473.6 1112.19 473.6ZM1090.59 347.6C1086.99 359.2 1085.19 370.8 1085.19 382.4C1085.19 394 1085.59 403 1086.39 409.4C1087.19 415.8 1088.69 422.2 1090.89 428.6C1095.49 441.6 1104.49 448.1 1117.89 448.1C1131.49 448.1 1140.39 444.5 1144.59 437.3C1148.99 430.1 1151.19 419 1151.19 404C1151.19 361.4 1141.09 340.1 1120.89 340.1C1109.29 340.1 1099.19 342.6 1090.59 347.6ZM1211.68 274.1C1218.08 270.9 1224.58 269.3 1231.18 269.3C1237.78 269.3 1243.08 271.4 1247.08 275.6C1251.28 279.8 1253.38 286 1253.38 294.2C1253.38 302.4 1252.88 311.7 1251.88 322.1C1266.88 322.1 1281.18 320 1294.78 315.8C1297.18 319.8 1298.38 324.5 1298.38 329.9C1298.38 335.1 1295.98 339.4 1291.18 342.8C1286.58 346 1281.88 347.6 1277.08 347.6C1272.28 347.6 1266.88 347 1260.88 345.8C1254.88 344.6 1250.98 343.9 1249.18 343.7C1248.98 345.5 1248.38 349.1 1247.38 354.5C1246.58 359.9 1245.88 364.6 1245.28 368.6C1243.68 379.6 1242.88 391.4 1242.88 404C1242.88 431.4 1251.78 445.1 1269.58 445.1C1276.18 445.1 1283.78 442.8 1292.38 438.2C1294.98 442 1296.28 446.9 1296.28 452.9C1296.28 458.9 1292.98 463.6 1286.38 467C1279.98 470.2 1272.28 471.8 1263.28 471.8C1228.08 471.8 1210.48 451.8 1210.48 411.8C1210.48 406 1211.28 395.5 1212.88 380.3C1214.68 365.1 1215.58 352.8 1215.58 343.4C1205.98 344 1198.28 345.7 1192.48 348.5C1190.08 344.9 1188.88 340.8 1188.88 336.2C1188.88 331.4 1190.58 327.5 1193.98 324.5C1197.38 321.3 1201.58 319.7 1206.58 319.7C1211.58 319.7 1214.88 319.8 1216.48 320C1216.68 318.4 1216.78 316.3 1216.78 313.7C1216.78 298.7 1215.08 285.5 1211.68 274.1Z" fill="black"/>
<path d="M32.0598 256.1L32.0811 254.6L32.0704 254.6H32.0598V256.1ZM95.3598 257L95.3384 258.5L95.3491 258.5H95.3598V257ZM167.36 253.4L168.689 252.704L168.189 251.75L167.126 251.918L167.36 253.4ZM163.46 282.5L164.448 283.629L164.461 283.617L164.473 283.606L163.46 282.5ZM146.06 288.8L145.891 290.29L145.975 290.3H146.06V288.8ZM111.56 284.9L111.728 283.409L110.06 283.221V284.9H111.56ZM110.06 303.5L111.552 303.655L111.553 303.645L111.554 303.636L110.06 303.5ZM112.16 466.4L112.672 467.81L113.83 467.389L113.642 466.171L112.16 466.4ZM72.8598 464L71.9173 465.167L71.9311 465.178L71.9452 465.189L72.8598 464ZM68.0598 401.3L69.553 401.442L69.553 401.442L68.0598 401.3ZM68.0598 284.3L69.5497 284.127L69.3876 282.732L67.9855 282.802L68.0598 284.3ZM11.3598 294.5L10.0299 295.194L10.6638 296.409L11.9309 295.887L11.3598 294.5ZM14.6598 263.3L15.7427 264.338L15.7427 264.338L14.6598 263.3ZM32.0384 257.6L95.3384 258.5L95.3811 255.5L32.0811 254.6L32.0384 257.6ZM95.3598 258.5C128.171 258.5 152.27 257.301 167.594 254.882L167.126 251.918C152.049 254.299 128.149 255.5 95.3598 255.5V258.5ZM166.031 254.096C168.104 258.053 169.16 262.608 169.16 267.8H172.16C172.16 262.192 171.016 257.147 168.689 252.704L166.031 254.096ZM169.16 267.8C169.16 272.694 167.005 277.215 162.446 281.394L164.473 283.606C169.514 278.985 172.16 273.706 172.16 267.8H169.16ZM162.472 281.371C157.964 285.315 152.523 287.3 146.06 287.3V290.3C153.197 290.3 159.355 288.085 164.448 283.629L162.472 281.371ZM146.228 287.309L111.728 283.409L111.391 286.39L145.891 290.29L146.228 287.309ZM110.06 284.9C110.06 286.212 109.571 292.312 108.566 303.364L111.554 303.636C112.549 292.688 113.06 286.388 113.06 284.9H110.06ZM108.568 303.345C105.762 330.397 104.36 357.548 104.36 384.8H107.36C107.36 357.652 108.757 330.603 111.552 303.655L108.568 303.345ZM104.36 384.8C104.36 412.078 106.466 439.354 110.677 466.629L113.642 466.171C109.454 439.046 107.36 411.922 107.36 384.8H104.36ZM111.647 464.99C105.216 467.329 98.4894 468.5 91.4598 468.5V471.5C98.8301 471.5 105.904 470.271 112.672 467.81L111.647 464.99ZM91.4598 468.5C84.5564 468.5 78.6863 466.589 73.7743 462.811L71.9452 465.189C77.4333 469.411 83.9631 471.5 91.4598 471.5V468.5ZM73.8023 462.833C69.0344 458.982 66.5598 453.26 66.5598 445.4H63.5598C63.5598 453.94 66.2852 460.618 71.9173 465.167L73.8023 462.833ZM66.5598 445.4C66.5598 437.08 67.5528 422.444 69.553 401.442L66.5665 401.158C64.5667 422.156 63.5598 436.92 63.5598 445.4H66.5598ZM69.553 401.442C71.5572 380.398 72.5598 359.95 72.5598 340.1H69.5598C69.5598 359.85 68.5623 380.202 66.5665 401.158L69.553 401.442ZM72.5598 340.1C72.5598 320.051 71.5573 301.392 69.5497 284.127L66.5698 284.473C68.5622 301.608 69.5598 320.149 69.5598 340.1H72.5598ZM67.9855 282.802C43.7104 284.006 24.616 287.419 10.7886 293.113L11.9309 295.887C25.3035 290.381 44.0091 286.994 68.1341 285.798L67.9855 282.802ZM12.6896 293.806C10.4101 289.437 9.25977 284.578 9.25977 279.2H6.25977C6.25977 285.022 7.50939 290.363 10.0299 295.194L12.6896 293.806ZM9.25977 279.2C9.25977 273.844 11.3682 268.903 15.7427 264.338L13.5768 262.262C8.75138 267.297 6.25977 272.956 6.25977 279.2H9.25977ZM15.7427 264.338C20.0435 259.85 25.4444 257.6 32.0598 257.6V254.6C24.6751 254.6 18.476 257.15 13.5768 262.262L15.7427 264.338ZM155.899 454.4L154.727 455.337L154.735 455.346L155.899 454.4ZM160.999 340.1L159.834 339.155L159.834 339.155L160.999 340.1ZM259.099 449.3L260.22 450.297L260.226 450.29L259.099 449.3ZM182.899 347.6L182.145 346.303L181.64 346.597L181.466 347.155L182.899 347.6ZM178.699 409.4L177.21 409.586L177.21 409.586L178.699 409.4ZM183.199 428.6L181.78 429.088L181.785 429.1L183.199 428.6ZM236.899 437.3L235.619 436.518L235.611 436.531L235.603 436.544L236.899 437.3ZM204.499 472.1C182.789 472.1 167.09 465.795 157.063 453.454L154.735 455.346C165.508 468.605 182.208 475.1 204.499 475.1V472.1ZM157.07 453.463C146.951 440.814 141.799 423.188 141.799 400.4H138.799C138.799 423.612 144.046 441.986 154.728 455.337L157.07 453.463ZM141.799 400.4C141.799 377.522 148.594 357.761 162.163 341.045L159.834 339.155C145.804 356.439 138.799 376.878 138.799 400.4H141.799ZM162.163 341.045C175.683 324.391 192.958 316.1 214.099 316.1V313.1C192.04 313.1 173.915 321.809 159.834 339.155L162.163 341.045ZM214.099 316.1C236.018 316.1 252.197 322.263 262.927 334.346C273.687 346.463 279.199 364.79 279.199 389.6H282.199C282.199 364.41 276.61 345.237 265.17 332.354C253.7 319.437 236.579 313.1 214.099 313.1V316.1ZM279.199 389.6C279.199 412.664 272.113 432.205 257.972 448.31L260.226 450.29C274.884 433.595 282.199 413.336 282.199 389.6H279.199ZM257.978 448.303C243.867 464.178 226.078 472.1 204.499 472.1V475.1C226.92 475.1 245.53 466.822 260.22 450.297L257.978 448.303ZM181.466 347.155C177.824 358.893 175.999 370.642 175.999 382.4H178.999C178.999 370.958 180.774 359.507 184.331 348.045L181.466 347.155ZM175.999 382.4C175.999 394.022 176.399 403.094 177.21 409.586L180.187 409.214C179.399 402.906 178.999 393.978 178.999 382.4H175.999ZM177.21 409.586C178.024 416.094 179.548 422.595 181.78 429.088L184.617 428.112C182.449 421.805 180.974 415.506 180.187 409.214L177.21 409.586ZM181.785 429.1C184.162 435.818 187.719 440.973 192.521 444.441C197.325 447.911 203.25 449.6 210.199 449.6V446.6C203.747 446.6 198.472 445.039 194.277 442.009C190.078 438.977 186.836 434.382 184.613 428.1L181.785 429.1ZM210.199 449.6C223.98 449.6 233.586 445.956 238.194 438.056L235.603 436.544C231.812 443.044 223.618 446.6 210.199 446.6V449.6ZM238.179 438.082C242.796 430.527 244.999 419.09 244.999 404H241.999C241.999 418.91 239.802 429.673 235.619 436.518L238.179 438.082ZM244.999 404C244.999 382.629 242.473 366.386 237.279 355.432C234.673 349.936 231.367 345.713 227.318 342.867C223.255 340.01 218.528 338.6 213.199 338.6V341.6C217.969 341.6 222.081 342.852 225.592 345.321C229.118 347.799 232.125 351.564 234.568 356.718C239.475 367.064 241.999 382.771 241.999 404H244.999ZM213.199 338.6C201.378 338.6 191.009 341.149 182.145 346.303L183.653 348.897C191.988 344.051 201.819 341.6 213.199 341.6V338.6ZM329.493 375.5H327.993L330.849 376.141L329.493 375.5ZM360.693 335L361.687 336.124L361.688 336.123L360.693 335ZM417.993 383L416.826 382.058L416.824 382.061L417.993 383ZM384.993 412.1L384.231 410.808L382.957 411.56L383.691 412.844L384.993 412.1ZM405.693 434.6L404.89 435.867L404.908 435.878L404.926 435.889L405.693 434.6ZM438.693 446.6H440.193V445.395L439.016 445.135L438.693 446.6ZM432.993 465.2L431.837 464.245L431.832 464.25L432.993 465.2ZM377.493 452.3L376.425 453.353L376.433 453.361L377.493 452.3ZM348.093 408.2L347.423 406.858L346.18 407.48L346.704 408.766L348.093 408.2ZM381.093 385.4L380.068 384.305L380.062 384.31L380.057 384.316L381.093 385.4ZM352.293 374.3L351.049 373.462L351.043 373.471L352.293 374.3ZM330.393 421.7L328.912 421.465L328.885 421.633L328.897 421.803L330.393 421.7ZM336.393 466.4L336.935 467.799L338.055 467.365L337.877 466.177L336.393 466.4ZM296.193 405.2L297.685 405.356L297.685 405.355L296.193 405.2ZM292.293 248.6L291.767 247.195L290.604 247.632L290.815 248.855L292.293 248.6ZM328.893 251.9L327.809 252.937L327.832 252.961L327.857 252.984L328.893 251.9ZM332.493 318.5L330.999 318.365L330.998 318.377L332.493 318.5ZM330.849 376.141C337.752 361.547 348.02 348.206 361.687 336.124L359.7 333.876C345.767 346.194 335.235 359.853 328.137 374.859L330.849 376.141ZM361.688 336.123C375.502 323.887 389.263 317.9 402.993 317.9V314.9C388.324 314.9 373.884 321.313 359.699 333.877L361.688 336.123ZM402.993 317.9C412.739 317.9 419.779 320.478 424.402 325.379C429.041 330.297 431.493 337.81 431.493 348.2H434.493C434.493 337.39 431.945 329.003 426.584 323.321C421.208 317.622 413.248 314.9 402.993 314.9V317.9ZM431.493 348.2C431.493 358.528 426.709 369.803 416.826 382.058L419.161 383.942C429.277 371.397 434.493 359.472 434.493 348.2H431.493ZM416.824 382.061C407.125 394.134 396.26 403.709 384.231 410.808L385.756 413.392C398.127 406.091 409.261 396.266 419.163 383.939L416.824 382.061ZM383.691 412.844C389.393 422.822 396.452 430.516 404.89 435.867L406.497 433.333C398.534 428.284 391.794 420.978 386.296 411.356L383.691 412.844ZM404.926 435.889C413.509 440.998 424.675 445.044 438.37 448.065L439.016 445.135C425.512 442.156 414.678 438.202 406.461 433.311L404.926 435.889ZM437.193 446.6C437.193 454.16 435.354 459.987 431.837 464.245L434.15 466.155C438.232 461.213 440.193 454.64 440.193 446.6H437.193ZM431.832 464.25C428.574 468.233 423.841 470.3 417.393 470.3V473.3C424.546 473.3 430.213 470.967 434.154 466.15L431.832 464.25ZM417.393 470.3C404.315 470.3 391.374 464.06 378.554 451.239L376.433 453.361C389.612 466.54 403.272 473.3 417.393 473.3V470.3ZM378.562 451.247C365.691 438.179 356.004 423.642 349.482 407.634L346.704 408.766C353.383 425.158 363.295 440.021 376.425 453.353L378.562 451.247ZM348.764 409.542C361.682 403.083 372.809 395.4 382.13 386.484L380.057 384.316C370.977 393 360.105 400.517 347.423 406.858L348.764 409.542ZM382.119 386.495C391.68 377.544 396.693 368.376 396.693 359H393.693C393.693 367.224 389.307 375.656 380.068 384.305L382.119 386.495ZM396.693 359C396.693 354.495 396.011 350.865 394.447 348.315C392.809 345.647 390.286 344.3 387.093 344.3V347.3C389.301 347.3 390.828 348.153 391.89 349.885C393.026 351.735 393.693 354.705 393.693 359H396.693ZM387.093 344.3C381.422 344.3 375.596 346.89 369.643 351.765C363.687 356.642 357.493 363.897 351.049 373.462L353.537 375.138C359.894 365.702 365.9 358.708 371.544 354.085C377.191 349.46 382.364 347.3 387.093 347.3V344.3ZM351.043 373.471C338.404 392.531 330.962 408.546 328.912 421.465L331.875 421.935C333.824 409.654 340.983 394.069 353.543 375.129L351.043 373.471ZM328.897 421.803C329.302 427.677 331.314 442.646 334.91 466.623L337.877 466.177C334.273 442.154 332.285 427.323 331.89 421.597L328.897 421.803ZM335.852 465.001C329.843 467.327 323.229 468.5 315.993 468.5V471.5C323.558 471.5 330.544 470.273 336.935 467.799L335.852 465.001ZM315.993 468.5C308.515 468.5 303.183 466.679 299.715 463.3C296.254 459.929 294.393 454.759 294.393 447.5H291.393C291.393 455.241 293.383 461.321 297.622 465.45C301.853 469.571 308.072 471.5 315.993 471.5V468.5ZM294.393 447.5C294.393 440.391 295.484 426.368 297.685 405.356L294.702 405.044C292.503 426.032 291.393 440.209 291.393 447.5H294.393ZM297.685 405.355C299.888 384.132 300.993 367.074 300.993 354.2H297.993C297.993 366.926 296.899 383.868 294.701 405.045L297.685 405.355ZM300.993 354.2C300.993 311.553 298.591 276.26 293.771 248.345L290.815 248.855C295.595 276.54 297.993 311.647 297.993 354.2H300.993ZM292.82 250.004C299.053 247.667 305.474 246.5 312.093 246.5V243.5C305.113 243.5 298.334 244.733 291.767 247.195L292.82 250.004ZM312.093 246.5C318.515 246.5 323.713 248.654 327.809 252.937L329.977 250.863C325.274 245.946 319.272 243.5 312.093 243.5V246.5ZM327.857 252.984C332.096 257.039 334.293 262.711 334.293 270.2H337.293C337.293 262.089 334.891 255.561 329.93 250.816L327.857 252.984ZM334.293 270.2C334.293 277.921 333.201 293.952 330.999 318.365L333.987 318.635C336.186 294.248 337.293 278.079 337.293 270.2H334.293ZM330.998 318.377C328.997 342.792 327.993 361.839 327.993 375.5H330.993C330.993 361.961 331.99 343.008 333.988 318.623L330.998 318.377ZM448.535 420.2L447.038 420.096L447.035 420.148V420.2H448.535ZM451.535 377L453.031 377.104L453.035 377.052V377H451.535ZM443.135 321.8L442.544 320.421L441.288 320.959L441.707 322.26L443.135 321.8ZM484.535 378.8L486.018 379.023L486.018 379.023L484.535 378.8ZM481.535 421.1L480.039 421.215L480.04 421.225L481.535 421.1ZM483.035 429.8L484.512 429.539L484.505 429.498L484.495 429.456L483.035 429.8ZM516.335 424.1L515.119 423.222L515.116 423.226L516.335 424.1ZM534.935 388.4L533.528 387.88L533.524 387.89L533.521 387.9L534.935 388.4ZM542.135 357.5H543.635V357.453L543.632 357.405L542.135 357.5ZM537.035 321.8L536.508 320.396L535.195 320.888L535.598 322.231L537.035 321.8ZM573.335 324.5L572.299 325.585L572.311 325.597L572.323 325.608L573.335 324.5ZM520.235 537.8L520.941 539.124L520.953 539.117L520.235 537.8ZM459.635 536L458.763 537.221L458.77 537.225L458.776 537.23L459.635 536ZM455.135 492.5L454.138 491.379L454.127 491.389L454.116 491.399L455.135 492.5ZM480.335 485.9L481.796 486.237L482.155 484.683L480.581 484.42L480.335 485.9ZM532.235 477.8L533.667 478.245L533.67 478.236L533.673 478.227L532.235 477.8ZM542.735 413.6H544.235L541.328 413.079L542.735 413.6ZM518.135 452.9L519.174 453.982L519.174 453.981L518.135 452.9ZM450.031 420.304L453.031 377.104L450.038 376.896L447.038 420.096L450.031 420.304ZM453.035 377C453.035 357.454 450.213 338.898 444.563 321.34L441.707 322.26C447.256 339.502 450.035 357.746 450.035 377H453.035ZM443.726 323.179C449.086 320.881 455.772 319.7 463.835 319.7V316.7C455.498 316.7 448.383 317.919 442.544 320.421L443.726 323.179ZM463.835 319.7C471.56 319.7 477.091 321.841 480.719 325.878C484.375 329.945 486.335 336.194 486.335 344.9H489.335C489.335 335.806 487.295 328.705 482.95 323.872C478.579 319.009 472.11 316.7 463.835 316.7V319.7ZM486.335 344.9C486.335 352.787 485.248 364 483.052 378.576L486.018 379.023C488.222 364.4 489.335 353.013 489.335 344.9H486.335ZM483.052 378.576C480.853 393.169 479.735 403.373 479.735 409.1H482.735C482.735 403.627 483.817 393.631 486.018 379.023L483.052 378.576ZM479.735 409.1C479.735 414.507 479.835 418.555 480.039 421.215L483.03 420.985C482.835 418.445 482.735 414.493 482.735 409.1H479.735ZM480.04 421.225C480.248 423.723 480.765 426.701 481.575 430.144L484.495 429.456C483.705 426.099 483.221 423.277 483.03 420.975L480.04 421.225ZM481.558 430.061C482.197 433.685 483.591 436.59 485.874 438.581C488.166 440.579 491.175 441.5 494.735 441.5V438.5C491.694 438.5 489.454 437.721 487.845 436.319C486.229 434.91 485.072 432.715 484.512 429.539L481.558 430.061ZM494.735 441.5C502.321 441.5 509.914 435.63 517.554 424.974L515.116 423.226C507.556 433.77 500.749 438.5 494.735 438.5V441.5ZM517.551 424.978C525.437 414.058 531.703 402.03 536.349 388.9L533.521 387.9C528.967 400.77 522.832 412.542 515.119 423.222L517.551 424.978ZM536.342 388.92C541.161 375.867 543.635 365.368 543.635 357.5H540.635C540.635 364.832 538.308 374.933 533.528 387.88L536.342 388.92ZM543.632 357.405C542.63 341.573 540.922 329.536 538.472 321.369L535.598 322.231C537.948 330.064 539.64 341.827 540.638 357.595L543.632 357.405ZM537.561 323.204C543.799 320.865 550.121 319.7 556.535 319.7V316.7C549.749 316.7 543.07 317.935 536.508 320.396L537.561 323.204ZM556.535 319.7C562.998 319.7 568.212 321.684 572.299 325.585L574.37 323.415C569.658 318.916 563.671 316.7 556.535 316.7V319.7ZM572.323 325.608C576.572 329.487 578.735 334.664 578.735 341.3H581.735C581.735 333.936 579.298 327.913 574.346 323.392L572.323 325.608ZM578.735 341.3C578.735 395.829 573.739 439.337 563.8 471.887C553.858 504.447 539.033 525.847 519.517 536.483L520.953 539.117C541.437 527.953 556.612 505.703 566.669 472.763C576.731 439.813 581.735 395.971 581.735 341.3H578.735ZM519.529 536.476C510.771 541.148 500.818 543.5 489.635 543.5V546.5C501.252 546.5 511.699 544.052 520.941 539.124L519.529 536.476ZM489.635 543.5C478.514 543.5 468.819 540.579 460.493 534.77L458.776 537.23C467.65 543.421 477.956 546.5 489.635 546.5V543.5ZM460.507 534.779C452.522 529.076 448.535 521.142 448.535 510.8H445.535C445.535 522.058 449.948 530.924 458.763 537.221L460.507 534.779ZM448.535 510.8C448.535 504.028 451.053 498.324 456.154 493.601L454.116 491.399C448.417 496.676 445.535 503.172 445.535 510.8H448.535ZM456.131 493.621C461.25 489.072 467.292 486.8 474.335 486.8V483.8C466.577 483.8 459.82 486.328 454.138 491.379L456.131 493.621ZM474.335 486.8C475.821 486.8 477.732 486.987 480.088 487.38L480.581 484.42C478.137 484.013 476.048 483.8 474.335 483.8V486.8ZM478.873 485.563C478.256 488.239 477.935 490.656 477.935 492.8H480.935C480.935 490.944 481.214 488.761 481.796 486.237L478.873 485.563ZM477.935 492.8C477.935 501.727 479.473 508.689 482.777 513.455C486.15 518.32 491.222 520.7 497.735 520.7V517.7C492.047 517.7 487.97 515.68 485.243 511.745C482.446 507.711 480.935 501.473 480.935 492.8H477.935ZM497.735 520.7C505.761 520.7 512.859 516.334 519.035 508.1L516.635 506.3C510.811 514.066 504.508 517.7 497.735 517.7V520.7ZM519.035 508.1C525.157 499.937 530.027 489.975 533.667 478.245L530.802 477.355C527.242 488.825 522.512 498.463 516.635 506.3L519.035 508.1ZM533.673 478.227C540.703 454.525 544.235 432.978 544.235 413.6H541.235C541.235 432.622 537.767 453.875 530.797 477.373L533.673 478.227ZM541.328 413.079C535.391 429.108 527.303 442.003 517.095 451.819L519.174 453.981C529.766 443.797 538.078 430.492 544.141 414.121L541.328 413.079ZM517.096 451.818C507.121 461.401 496.379 466.1 484.835 466.1V469.1C497.29 469.1 508.748 463.999 519.174 453.982L517.096 451.818ZM484.835 466.1C473.089 466.1 464.505 462.286 458.801 454.838C453.039 447.314 450.035 435.851 450.035 420.2H447.035C447.035 436.149 450.081 448.386 456.419 456.662C462.815 465.014 472.38 469.1 484.835 469.1V466.1ZM604.762 454.4L603.591 455.337L603.598 455.346L604.762 454.4ZM609.862 340.1L608.698 339.155L608.698 339.155L609.862 340.1ZM707.962 449.3L709.083 450.297L709.089 450.29L707.962 449.3ZM631.762 347.6L631.008 346.303L630.503 346.597L630.33 347.155L631.762 347.6ZM627.562 409.4L626.074 409.586L626.074 409.586L627.562 409.4ZM632.062 428.6L630.644 429.088L630.648 429.1L632.062 428.6ZM685.762 437.3L684.482 436.518L684.474 436.531L684.466 436.544L685.762 437.3ZM653.362 472.1C631.653 472.1 615.953 465.795 605.926 453.454L603.598 455.346C614.371 468.605 631.072 475.1 653.362 475.1V472.1ZM605.933 453.463C595.815 440.814 590.662 423.188 590.662 400.4H587.662C587.662 423.612 592.91 441.986 603.591 455.337L605.933 453.463ZM590.662 400.4C590.662 377.522 597.457 357.761 611.027 341.045L608.698 339.155C594.667 356.439 587.662 376.878 587.662 400.4H590.662ZM611.027 341.045C624.546 324.391 641.821 316.1 662.962 316.1V313.1C640.903 313.1 622.778 321.809 608.698 339.155L611.027 341.045ZM662.962 316.1C684.882 316.1 701.061 322.263 711.791 334.346C722.55 346.463 728.062 364.79 728.062 389.6H731.062C731.062 364.41 725.474 345.237 714.034 332.354C702.564 319.437 685.443 313.1 662.962 313.1V316.1ZM728.062 389.6C728.062 412.664 720.976 432.205 706.835 448.31L709.089 450.29C723.748 433.595 731.062 413.336 731.062 389.6H728.062ZM706.841 448.303C692.731 464.178 674.941 472.1 653.362 472.1V475.1C675.783 475.1 694.394 466.822 709.083 450.297L706.841 448.303ZM630.33 347.155C626.687 358.893 624.862 370.642 624.862 382.4H627.862C627.862 370.958 629.637 359.507 633.195 348.045L630.33 347.155ZM624.862 382.4C624.862 394.022 625.262 403.094 626.074 409.586L629.051 409.214C628.262 402.906 627.862 393.978 627.862 382.4H624.862ZM626.074 409.586C626.887 416.094 628.412 422.595 630.644 429.088L633.481 428.112C631.313 421.805 629.837 415.506 629.051 409.214L626.074 409.586ZM630.648 429.1C633.025 435.818 636.583 440.973 641.384 444.441C646.189 447.911 652.114 449.6 659.062 449.6V446.6C652.611 446.6 647.335 445.039 643.14 442.009C638.942 438.977 635.699 434.382 633.476 428.1L630.648 429.1ZM659.062 449.6C672.843 449.6 682.449 445.956 687.058 438.056L684.466 436.544C680.675 443.044 672.481 446.6 659.062 446.6V449.6ZM687.042 438.082C691.659 430.527 693.862 419.09 693.862 404H690.862C690.862 418.91 688.665 429.673 684.482 436.518L687.042 438.082ZM693.862 404C693.862 382.629 691.336 366.386 686.142 355.432C683.536 349.936 680.231 345.713 676.181 342.867C672.118 340.01 667.391 338.6 662.062 338.6V341.6C666.833 341.6 670.944 342.852 674.456 345.321C677.981 347.799 680.988 351.564 683.432 356.718C688.338 367.064 690.862 382.771 690.862 404H693.862ZM662.062 338.6C650.242 338.6 639.873 341.149 631.008 346.303L632.516 348.897C640.851 344.051 650.683 341.6 662.062 341.6V338.6ZM838.357 321.8L836.886 321.506L836.592 322.977L838.062 323.271L838.357 321.8ZM789.157 285.8L788.385 284.514L788.173 284.641L788.013 284.83L789.157 285.8ZM788.557 325.1L787.588 326.245L787.601 326.256L787.614 326.267L788.557 325.1ZM807.757 335L807.305 336.43L807.316 336.434L807.757 335ZM832.957 344L832.4 345.393L832.4 345.393L832.957 344ZM857.857 355.7L857.131 357.013L857.151 357.024L857.172 357.035L857.857 355.7ZM877.357 374L876.09 374.803L876.094 374.81L876.099 374.817L877.357 374ZM860.857 453.8L859.909 452.637L859.902 452.643L860.857 453.8ZM756.457 460.1L755.572 461.311L755.583 461.319L755.594 461.327L756.457 460.1ZM745.057 400.7L743.94 399.699L743.938 399.701L745.057 400.7ZM779.257 394.7L780.706 395.086L781.014 393.933L779.958 393.374L779.257 394.7ZM785.857 436.7L784.762 437.726L784.779 437.744L784.796 437.761L785.857 436.7ZM837.457 437.6L838.427 438.744L838.427 438.744L837.457 437.6ZM836.257 392.3L835.296 393.452L835.304 393.459L835.312 393.465L836.257 392.3ZM809.857 377.9L810.347 376.483L810.347 376.483L809.857 377.9ZM778.657 366.5L779.195 365.1L779.195 365.1L778.657 366.5ZM751.957 348.8L750.842 349.803L750.855 349.818L750.868 349.832L751.957 348.8ZM765.457 272L764.552 270.803L764.545 270.809L765.457 272ZM860.257 262.7L859.52 264.007L859.534 264.015L859.548 264.022L860.257 262.7ZM868.357 313.4L869.452 314.425L869.46 314.416L869.468 314.407L868.357 313.4ZM839.828 322.094C840.647 317.994 841.057 313.796 841.057 309.5H838.057C838.057 313.604 837.666 317.606 836.886 321.506L839.828 322.094ZM841.057 309.5C841.057 299.577 838.627 291.857 833.503 286.625C828.374 281.388 820.796 278.9 811.057 278.9V281.9C820.317 281.9 826.989 284.262 831.36 288.725C835.736 293.193 838.057 300.023 838.057 309.5H841.057ZM811.057 278.9C802.247 278.9 794.666 280.745 788.385 284.514L789.928 287.086C795.647 283.655 802.666 281.9 811.057 281.9V278.9ZM788.013 284.83C782.168 291.718 779.257 299.969 779.257 309.5H782.257C782.257 300.631 784.946 293.081 790.3 286.77L788.013 284.83ZM779.257 309.5C779.257 316.004 782.102 321.603 787.588 326.245L789.526 323.955C784.611 319.797 782.257 314.996 782.257 309.5H779.257ZM787.614 326.267C792.985 330.605 799.56 333.985 807.305 336.43L808.208 333.57C800.753 331.215 794.528 327.995 789.499 323.933L787.614 326.267ZM807.316 336.434C815.07 338.82 823.431 341.805 832.4 345.393L833.514 342.607C824.482 338.995 816.043 335.98 808.198 333.566L807.316 336.434ZM832.4 345.393C841.348 348.972 849.591 352.846 857.131 357.013L858.582 354.387C850.922 350.154 842.565 346.228 833.514 342.607L832.4 345.393ZM857.172 357.035C864.709 360.9 871.017 366.804 876.09 374.803L878.623 373.197C873.296 364.796 866.604 358.5 858.541 354.365L857.172 357.035ZM876.099 374.817C881.118 382.539 883.657 391.745 883.657 402.5H886.657C886.657 391.255 883.996 381.461 878.614 373.183L876.099 374.817ZM883.657 402.5C883.657 423.052 875.758 439.724 859.909 452.637L861.804 454.963C878.356 441.476 886.657 423.948 886.657 402.5H883.657ZM859.902 452.643C844.195 465.601 825.242 472.1 802.957 472.1V475.1C825.872 475.1 845.518 468.399 861.811 454.957L859.902 452.643ZM802.957 472.1C785.014 472.1 769.827 467.668 757.319 458.873L755.594 461.327C768.686 470.532 784.5 475.1 802.957 475.1V472.1ZM757.341 458.889C745.151 449.988 739.057 437.65 739.057 421.7H736.057C736.057 438.55 742.563 451.812 755.572 461.311L757.341 458.889ZM739.057 421.7C739.057 413.621 741.451 406.991 746.176 401.699L743.938 399.701C738.663 405.609 736.057 412.979 736.057 421.7H739.057ZM746.173 401.701C751.125 396.179 756.834 393.5 763.357 393.5V390.5C755.88 390.5 749.389 393.621 743.94 399.699L746.173 401.701ZM763.357 393.5C770.49 393.5 775.487 394.402 778.555 396.026L779.958 393.374C776.226 391.398 770.623 390.5 763.357 390.5V393.5ZM777.807 394.314C776.183 400.405 775.357 405.938 775.357 410.9H778.357C778.357 406.262 779.13 400.995 780.706 395.086L777.807 394.314ZM775.357 410.9C775.357 421.989 778.445 430.987 784.762 437.726L786.951 435.674C781.269 429.613 778.357 421.411 778.357 410.9H775.357ZM784.796 437.761C791.34 444.304 800.257 447.5 811.357 447.5V444.5C800.857 444.5 792.774 441.496 786.917 435.639L784.796 437.761ZM811.357 447.5C822.421 447.5 831.494 444.626 838.427 438.744L836.486 436.456C830.219 441.774 821.892 444.5 811.357 444.5V447.5ZM838.427 438.744C845.386 432.839 848.857 425.009 848.857 415.4H845.857C845.857 424.191 842.727 431.161 836.486 436.456L838.427 438.744ZM848.857 415.4C848.857 405.541 844.947 397.415 837.201 391.135L835.312 393.465C842.366 399.185 845.857 406.459 845.857 415.4H848.857ZM837.217 391.148C829.856 385.013 820.889 380.132 810.347 376.483L809.366 379.317C819.624 382.868 828.258 387.587 835.296 393.452L837.217 391.148ZM810.347 376.483C799.964 372.888 789.579 369.094 779.195 365.1L778.118 367.9C788.534 371.906 798.95 375.712 809.366 379.317L810.347 376.483ZM779.195 365.1C768.996 361.177 760.286 355.4 753.045 347.768L750.868 349.832C758.428 357.8 767.518 363.823 778.118 367.9L779.195 365.1ZM753.072 347.797C746.149 340.104 742.657 330.475 742.657 318.8H739.657C739.657 331.125 743.365 341.496 750.842 349.803L753.072 347.797ZM742.657 318.8C742.657 300.511 750.503 285.335 766.368 273.191L764.545 270.809C748.011 283.465 739.657 299.489 739.657 318.8H742.657ZM766.361 273.196C782.5 260.994 800.683 254.9 820.957 254.9V251.9C800.031 251.9 781.213 258.206 764.552 270.804L766.361 273.196ZM820.957 254.9C835.951 254.9 848.787 257.957 859.52 264.007L860.993 261.393C849.727 255.043 836.362 251.9 820.957 251.9V254.9ZM859.548 264.022C864.955 266.919 868.938 270.547 871.575 274.88C874.212 279.211 875.557 284.333 875.557 290.3H878.557C878.557 283.867 877.102 278.189 874.138 273.32C871.176 268.453 866.758 264.481 860.965 261.378L859.548 264.022ZM875.557 290.3C875.557 298.945 872.784 306.281 867.245 312.393L869.468 314.407C875.529 307.719 878.557 299.655 878.557 290.3H875.557ZM867.261 312.375C861.756 318.26 854.859 321.2 846.457 321.2V324.2C855.655 324.2 863.357 320.94 869.452 314.425L867.261 312.375ZM846.457 321.2C844.178 321.2 841.579 320.915 838.651 320.329L838.062 323.271C841.134 323.885 843.935 324.2 846.457 324.2V321.2ZM936.314 440.6L934.834 440.351L934.628 441.58L935.798 442.009L936.314 440.6ZM993.314 438.8L993.997 440.135L994.388 439.935L994.609 439.556L993.314 438.8ZM961.214 374L959.94 373.208L959.934 373.217L961.214 374ZM936.314 379.1L934.836 378.844L937.651 379.778L936.314 379.1ZM1035.91 333.2L1034.58 333.89L1034.59 333.904L1034.6 333.918L1035.91 333.2ZM1023.31 441.8L1022.1 440.924L1022.1 440.924L1023.31 441.8ZM935.114 465.8L935.661 464.404L933.581 463.588L933.614 465.822L935.114 465.8ZM940.214 541.1L940.74 542.504L941.856 542.086L941.701 540.904L940.214 541.1ZM903.614 537.8L904.698 536.763L904.686 536.751L904.674 536.739L903.614 537.8ZM900.614 470.3L902.105 470.461L902.105 470.461L900.614 470.3ZM897.614 321.8L897.087 320.396L895.899 320.841L896.141 322.087L897.614 321.8ZM934.214 324.5L933.101 325.506L933.127 325.534L933.153 325.561L934.214 324.5ZM935.798 442.009C944.197 445.081 953.878 446.6 964.814 446.6V443.6C954.149 443.6 944.83 442.119 936.829 439.191L935.798 442.009ZM964.814 446.6C975.811 446.6 985.552 444.461 993.997 440.135L992.63 437.465C984.675 441.539 975.417 443.6 964.814 443.6V446.6ZM994.609 439.556C1004.57 422.484 1009.51 402.112 1009.51 378.5H1006.51C1006.51 401.688 1001.66 421.516 992.018 438.044L994.609 439.556ZM1009.51 378.5C1009.51 366.654 1008.49 357.6 1006.36 351.458C1004.23 345.328 1000.77 341.6 995.714 341.6V344.6C998.854 344.6 1001.55 346.772 1003.52 352.442C1005.49 358.1 1006.51 366.746 1006.51 378.5H1009.51ZM995.714 341.6C990.095 341.6 984.326 344.434 978.438 349.708C972.539 354.991 966.377 362.848 959.94 373.208L962.488 374.792C968.85 364.552 974.838 356.959 980.439 351.942C986.051 346.916 991.133 344.6 995.714 344.6V341.6ZM959.934 373.217C947.234 393.981 938.866 416.362 934.834 440.351L937.793 440.849C941.761 417.238 949.993 395.219 962.493 374.783L959.934 373.217ZM937.651 379.778C958.809 338.063 981.931 317.9 1006.81 317.9V314.9C980.096 314.9 956.219 336.537 934.976 378.422L937.651 379.778ZM1006.81 317.9C1013.41 317.9 1018.96 319.256 1023.54 321.899C1028.11 324.538 1031.8 328.511 1034.58 333.89L1037.25 332.51C1034.23 326.689 1030.17 322.262 1025.04 319.301C1019.92 316.344 1013.82 314.9 1006.81 314.9V317.9ZM1034.6 333.918C1040.44 344.633 1043.41 358.365 1043.41 375.2H1046.41C1046.41 358.035 1043.39 343.767 1037.23 332.482L1034.6 333.918ZM1043.41 375.2C1043.41 399.282 1036.31 421.176 1022.1 440.924L1024.53 442.676C1039.11 422.424 1046.41 399.918 1046.41 375.2H1043.41ZM1022.1 440.924C1007.94 460.591 990.263 470.3 969.014 470.3V473.3C991.364 473.3 1009.89 463.009 1024.53 442.676L1022.1 440.924ZM969.014 470.3C956.777 470.3 945.665 468.327 935.661 464.404L934.566 467.196C944.962 471.273 956.451 473.3 969.014 473.3V470.3ZM933.614 465.822C934.015 493.269 935.718 518.428 938.726 541.296L941.701 540.904C938.71 518.172 937.013 493.131 936.614 465.778L933.614 465.822ZM939.687 539.696C933.455 542.033 927.033 543.2 920.414 543.2V546.2C927.394 546.2 934.173 544.967 940.74 542.504L939.687 539.696ZM920.414 543.2C913.992 543.2 908.794 541.046 904.698 536.763L902.53 538.837C907.234 543.754 913.235 546.2 920.414 546.2V543.2ZM904.674 536.739C900.666 532.731 898.514 526.391 898.514 517.4H895.514C895.514 526.809 897.761 534.069 902.553 538.861L904.674 536.739ZM898.514 517.4C898.514 508.289 899.705 492.662 902.105 470.461L899.122 470.139C896.722 492.338 895.514 508.111 895.514 517.4H898.514ZM902.105 470.461C904.507 448.242 905.714 430.78 905.714 418.1H902.714C902.714 430.62 901.52 447.958 899.122 470.139L902.105 470.461ZM905.714 418.1C905.714 376.467 903.514 344.255 899.086 321.513L896.141 322.087C900.514 344.545 902.714 376.533 902.714 418.1H905.714ZM898.14 323.204C904.368 320.869 910.889 319.7 917.714 319.7V316.7C910.538 316.7 903.659 317.931 897.087 320.396L898.14 323.204ZM917.714 319.7C924.613 319.7 929.659 321.701 933.101 325.506L935.326 323.494C931.169 318.899 925.215 316.7 917.714 316.7V319.7ZM933.153 325.561C936.749 329.157 938.714 335.083 938.714 343.7H941.714C941.714 334.717 939.678 327.843 935.274 323.439L933.153 325.561ZM938.714 343.7C938.714 352.173 937.43 363.875 934.836 378.844L937.792 379.356C940.397 364.325 941.714 352.427 941.714 343.7H938.714ZM1063.59 454.4L1062.41 455.337L1062.42 455.346L1063.59 454.4ZM1068.69 340.1L1067.52 339.155L1067.52 339.155L1068.69 340.1ZM1166.79 449.3L1167.91 450.297L1167.91 450.29L1166.79 449.3ZM1090.59 347.6L1089.83 346.303L1089.33 346.597L1089.15 347.155L1090.59 347.6ZM1086.39 409.4L1084.9 409.586L1084.9 409.586L1086.39 409.4ZM1090.89 428.6L1089.47 429.088L1089.47 429.1L1090.89 428.6ZM1144.59 437.3L1143.31 436.518L1143.3 436.531L1143.29 436.544L1144.59 437.3ZM1112.19 472.1C1090.48 472.1 1074.78 465.795 1064.75 453.454L1062.42 455.346C1073.2 468.605 1089.9 475.1 1112.19 475.1V472.1ZM1064.76 453.463C1054.64 440.814 1049.49 423.188 1049.49 400.4H1046.49C1046.49 423.612 1051.73 441.986 1062.42 455.337L1064.76 453.463ZM1049.49 400.4C1049.49 377.522 1056.28 357.761 1069.85 341.045L1067.52 339.155C1053.49 356.439 1046.49 376.878 1046.49 400.4H1049.49ZM1069.85 341.045C1083.37 324.391 1100.65 316.1 1121.79 316.1V313.1C1099.73 313.1 1081.6 321.809 1067.52 339.155L1069.85 341.045ZM1121.79 316.1C1143.71 316.1 1159.88 322.263 1170.61 334.346C1181.37 346.463 1186.89 364.79 1186.89 389.6H1189.89C1189.89 364.41 1184.3 345.237 1172.86 332.354C1161.39 319.437 1144.27 313.1 1121.79 313.1V316.1ZM1186.89 389.6C1186.89 412.664 1179.8 432.205 1165.66 448.31L1167.91 450.29C1182.57 433.595 1189.89 413.336 1189.89 389.6H1186.89ZM1165.67 448.303C1151.55 464.178 1133.77 472.1 1112.19 472.1V475.1C1134.61 475.1 1153.22 466.822 1167.91 450.297L1165.67 448.303ZM1089.15 347.155C1085.51 358.893 1083.69 370.642 1083.69 382.4H1086.69C1086.69 370.958 1088.46 359.507 1092.02 348.045L1089.15 347.155ZM1083.69 382.4C1083.69 394.022 1084.09 403.094 1084.9 409.586L1087.87 409.214C1087.09 402.906 1086.69 393.978 1086.69 382.4H1083.69ZM1084.9 409.586C1085.71 416.094 1087.24 422.595 1089.47 429.088L1092.3 428.112C1090.14 421.805 1088.66 415.506 1087.87 409.214L1084.9 409.586ZM1089.47 429.1C1091.85 435.818 1095.41 440.973 1100.21 444.441C1105.01 447.911 1110.94 449.6 1117.89 449.6V446.6C1111.43 446.6 1106.16 445.039 1101.96 442.009C1097.77 438.977 1094.52 434.382 1092.3 428.1L1089.47 429.1ZM1117.89 449.6C1131.67 449.6 1141.27 445.956 1145.88 438.056L1143.29 436.544C1139.5 443.044 1131.31 446.6 1117.89 446.6V449.6ZM1145.87 438.082C1150.48 430.527 1152.69 419.09 1152.69 404H1149.69C1149.69 418.91 1147.49 429.673 1143.31 436.518L1145.87 438.082ZM1152.69 404C1152.69 382.629 1150.16 366.386 1144.97 355.432C1142.36 349.936 1139.05 345.713 1135.01 342.867C1130.94 340.01 1126.22 338.6 1120.89 338.6V341.6C1125.66 341.6 1129.77 342.852 1133.28 345.321C1136.81 347.799 1139.81 351.564 1142.26 356.718C1147.16 367.064 1149.69 382.771 1149.69 404H1152.69ZM1120.89 338.6C1109.07 338.6 1098.7 341.149 1089.83 346.303L1091.34 348.897C1099.68 344.051 1109.51 341.6 1120.89 341.6V338.6ZM1211.68 274.1L1211.01 272.758L1209.88 273.322L1210.24 274.529L1211.68 274.1ZM1247.08 275.6L1245.99 276.634L1246.01 276.648L1246.02 276.661L1247.08 275.6ZM1251.88 322.1L1250.39 321.956L1250.23 323.6H1251.88V322.1ZM1294.78 315.8L1296.07 315.028L1295.46 314.02L1294.34 314.367L1294.78 315.8ZM1291.18 342.8L1292.04 344.031L1292.05 344.024L1291.18 342.8ZM1260.88 345.8L1261.18 344.329L1261.18 344.329L1260.88 345.8ZM1249.18 343.7L1249.35 342.209L1247.86 342.044L1247.69 343.534L1249.18 343.7ZM1247.38 354.5L1245.91 354.227L1245.9 354.253L1245.9 354.28L1247.38 354.5ZM1245.28 368.6L1243.8 368.377L1243.8 368.384L1245.28 368.6ZM1292.38 438.2L1293.62 437.353L1292.86 436.243L1291.67 436.877L1292.38 438.2ZM1286.38 467L1287.05 468.342L1287.06 468.338L1287.07 468.333L1286.38 467ZM1212.88 380.3L1211.39 380.124L1211.39 380.133L1211.39 380.143L1212.88 380.3ZM1215.58 343.4H1217.08V341.803L1215.49 341.903L1215.58 343.4ZM1192.48 348.5L1191.23 349.332L1191.96 350.418L1193.13 349.851L1192.48 348.5ZM1193.98 324.5L1194.97 325.625L1194.99 325.609L1195.01 325.592L1193.98 324.5ZM1216.48 320L1216.29 321.488L1217.78 321.674L1217.97 320.186L1216.48 320ZM1212.35 275.442C1218.56 272.337 1224.83 270.8 1231.18 270.8V267.8C1224.33 267.8 1217.6 269.463 1211.01 272.758L1212.35 275.442ZM1231.18 270.8C1237.43 270.8 1242.32 272.774 1245.99 276.634L1248.17 274.566C1243.84 270.026 1238.13 267.8 1231.18 267.8V270.8ZM1246.02 276.661C1249.85 280.486 1251.88 286.243 1251.88 294.2H1254.88C1254.88 285.757 1252.72 279.114 1248.14 274.539L1246.02 276.661ZM1251.88 294.2C1251.88 302.341 1251.38 311.592 1250.39 321.956L1253.37 322.244C1254.38 311.808 1254.88 302.459 1254.88 294.2H1251.88ZM1251.88 323.6C1267.02 323.6 1281.47 321.48 1295.22 317.233L1294.34 314.367C1280.89 318.52 1266.74 320.6 1251.88 320.6V323.6ZM1293.49 316.572C1295.73 320.304 1296.88 324.728 1296.88 329.9H1299.88C1299.88 324.272 1298.63 319.296 1296.07 315.028L1293.49 316.572ZM1296.88 329.9C1296.88 334.544 1294.78 338.414 1290.31 341.576L1292.05 344.024C1297.18 340.385 1299.88 335.656 1299.88 329.9H1296.88ZM1290.32 341.569C1285.93 344.624 1281.53 346.1 1277.08 346.1V349.1C1282.24 349.1 1287.23 347.376 1292.04 344.031L1290.32 341.569ZM1277.08 346.1C1272.4 346.1 1267.1 345.515 1261.18 344.329L1260.59 347.271C1266.66 348.485 1272.16 349.1 1277.08 349.1V346.1ZM1261.18 344.329C1255.19 343.132 1251.22 342.418 1249.35 342.209L1249.02 345.191C1250.74 345.382 1254.57 346.068 1260.59 347.271L1261.18 344.329ZM1247.69 343.534C1247.5 345.271 1246.91 348.817 1245.91 354.227L1248.86 354.773C1249.85 349.382 1250.46 345.729 1250.67 343.866L1247.69 343.534ZM1245.9 354.28C1245.1 359.68 1244.4 364.379 1243.8 368.377L1246.76 368.823C1247.36 364.821 1248.06 360.12 1248.86 354.72L1245.9 354.28ZM1243.8 368.384C1242.18 379.464 1241.38 391.337 1241.38 404H1244.38C1244.38 391.463 1245.18 379.736 1246.77 368.816L1243.8 368.384ZM1241.38 404C1241.38 417.814 1243.62 428.435 1248.3 435.642C1253.05 442.961 1260.23 446.6 1269.58 446.6V443.6C1261.13 443.6 1254.96 440.389 1250.81 434.008C1246.6 427.515 1244.38 417.586 1244.38 404H1241.38ZM1269.58 446.6C1276.52 446.6 1284.37 444.188 1293.09 439.523L1291.67 436.877C1283.19 441.412 1275.84 443.6 1269.58 443.6V446.6ZM1291.14 439.047C1293.53 442.532 1294.78 447.112 1294.78 452.9H1297.78C1297.78 446.688 1296.43 441.468 1293.62 437.353L1291.14 439.047ZM1294.78 452.9C1294.78 458.195 1291.94 462.451 1285.69 465.667L1287.07 468.333C1294.03 464.749 1297.78 459.605 1297.78 452.9H1294.78ZM1285.71 465.658C1279.57 468.731 1272.11 470.3 1263.28 470.3V473.3C1272.46 473.3 1280.4 471.669 1287.05 468.342L1285.71 465.658ZM1263.28 470.3C1245.97 470.3 1233.24 465.39 1224.81 455.809C1216.34 446.192 1211.98 431.613 1211.98 411.8H1208.98C1208.98 431.987 1213.42 447.408 1222.55 457.791C1231.72 468.21 1245.4 473.3 1263.28 473.3V470.3ZM1211.98 411.8C1211.98 406.089 1212.77 395.662 1214.37 380.457L1211.39 380.143C1209.79 395.338 1208.98 405.911 1208.98 411.8H1211.98ZM1214.37 380.476C1216.17 365.249 1217.08 352.884 1217.08 343.4H1214.08C1214.08 352.716 1213.19 364.951 1211.39 380.124L1214.37 380.476ZM1215.49 341.903C1205.78 342.51 1197.87 344.234 1191.83 347.149L1193.13 349.851C1198.69 347.166 1206.18 345.49 1215.67 344.897L1215.49 341.903ZM1193.73 347.668C1191.5 344.33 1190.38 340.524 1190.38 336.2H1187.38C1187.38 341.076 1188.66 345.47 1191.23 349.332L1193.73 347.668ZM1190.38 336.2C1190.38 331.802 1191.92 328.322 1194.97 325.625L1192.99 323.375C1189.24 326.678 1187.38 330.998 1187.38 336.2H1190.38ZM1195.01 325.592C1198.11 322.674 1201.93 321.2 1206.58 321.2V318.2C1201.23 318.2 1196.65 319.926 1192.95 323.408L1195.01 325.592ZM1206.58 321.2C1211.6 321.2 1214.8 321.302 1216.29 321.488L1216.67 318.512C1214.96 318.298 1211.56 318.2 1206.58 318.2V321.2ZM1217.97 320.186C1218.18 318.499 1218.28 316.33 1218.28 313.7H1215.28C1215.28 316.27 1215.18 318.301 1214.99 319.814L1217.97 320.186ZM1218.28 313.7C1218.28 298.591 1216.57 285.241 1213.12 273.671L1210.24 274.529C1213.59 285.759 1215.28 298.809 1215.28 313.7H1218.28Z" fill="white"/>
</g>
<defs>
<filter id="filter0_d_23_66" x="403" y="73" width="118.462" height="627.833" filterUnits="userSpaceOnUse" color-interpolation-filters="sRGB">
<feFlood flood-opacity="0" result="BackgroundImageFix"/>
<feColorMatrix in="SourceAlpha" type="matrix" values="0 0 0 0 0 0 0 0 0 0 0 0 0 0 0 0 0 0 127 0" result="hardAlpha"/>
<feOffset dx="4" dy="4"/>
<feGaussianBlur stdDeviation="4"/>
<feComposite in2="hardAlpha" operator="out"/>
<feColorMatrix type="matrix" values="0 0 0 0 0 0 0 0 0 0 0 0 0 0 0 0 0 0 0.78 0"/>
<feBlend mode="normal" in2="BackgroundImageFix" result="effect1_dropShadow_23_66"/>
<feBlend mode="normal" in="SourceGraphic" in2="effect1_dropShadow_23_66" result="shape"/>
</filter>
<filter id="filter1_d_23_66" x="789" y="73" width="118.46" height="627.833" filterUnits="userSpaceOnUse" color-interpolation-filters="sRGB">
<feFlood flood-opacity="0" result="BackgroundImageFix"/>
<feColorMatrix in="SourceAlpha" type="matrix" values="0 0 0 0 0 0 0 0 0 0 0 0 0 0 0 0 0 0 127 0" result="hardAlpha"/>
<feOffset dx="4" dy="4"/>
<feGaussianBlur stdDeviation="4"/>
<feComposite in2="hardAlpha" operator="out"/>
<feColorMatrix type="matrix" values="0 0 0 0 0 0 0 0 0 0 0 0 0 0 0 0 0 0 0.74 0"/>
<feBlend mode="normal" in2="BackgroundImageFix" result="effect1_dropShadow_23_66"/>
<feBlend mode="normal" in="SourceGraphic" in2="effect1_dropShadow_23_66" result="shape"/>
</filter>
<filter id="filter2_d_23_66" x="621" y="70" width="72" height="160" filterUnits="userSpaceOnUse" color-interpolation-filters="sRGB">
<feFlood flood-opacity="0" result="BackgroundImageFix"/>
<feColorMatrix in="SourceAlpha" type="matrix" values="0 0 0 0 0 0 0 0 0 0 0 0 0 0 0 0 0 0 127 0" result="hardAlpha"/>
<feOffset dx="4" dy="4"/>
<feGaussianBlur stdDeviation="4"/>
<feComposite in2="hardAlpha" operator="out"/>
<feColorMatrix type="matrix" values="0 0 0 0 0 0 0 0 0 0 0 0 0 0 0 0 0 0 0.78 0"/>
<feBlend mode="normal" in2="BackgroundImageFix" result="effect1_dropShadow_23_66"/>
<feBlend mode="normal" in="SourceGraphic" in2="effect1_dropShadow_23_66" result="shape"/>
</filter>
<filter id="filter3_d_23_66" x="329.368" y="174" width="649.632" height="72" filterUnits="userSpaceOnUse" color-interpolation-filters="sRGB">
<feFlood flood-opacity="0" result="BackgroundImageFix"/>
<feColorMatrix in="SourceAlpha" type="matrix" values="0 0 0 0 0 0 0 0 0 0 0 0 0 0 0 0 0 0 127 0" result="hardAlpha"/>
<feOffset dy="4"/>
<feGaussianBlur stdDeviation="4"/>
<feComposite in2="hardAlpha" operator="out"/>
<feColorMatrix type="matrix" values="0 0 0 0 0 0 0 0 0 0 0 0 0 0 0 0 0 0 0.7 0"/>
<feBlend mode="normal" in2="BackgroundImageFix" result="effect1_dropShadow_23_66"/>
<feBlend mode="normal" in="SourceGraphic" in2="effect1_dropShadow_23_66" result="shape"/>
</filter>
<filter id="filter4_d_23_66" x="232" y="37" width="844" height="58" filterUnits="userSpaceOnUse" color-interpolation-filters="sRGB">
<feFlood flood-opacity="0" result="BackgroundImageFix"/>
<feColorMatrix in="SourceAlpha" type="matrix" values="0 0 0 0 0 0 0 0 0 0 0 0 0 0 0 0 0 0 127 0" result="hardAlpha"/>
<feOffset dy="4"/>
<feGaussianBlur stdDeviation="4"/>
<feComposite in2="hardAlpha" operator="out"/>
<feColorMatrix type="matrix" values="0 0 0 0 0 0 0 0 0 0 0 0 0 0 0 0 0 0 0.56 0"/>
<feBlend mode="normal" in2="BackgroundImageFix" result="effect1_dropShadow_23_66"/>
<feBlend mode="normal" in="SourceGraphic" in2="effect1_dropShadow_23_66" result="shape"/>
</filter>
<filter id="filter5_d_23_66" x="215" y="0" width="878" height="58" filterUnits="userSpaceOnUse" color-interpolation-filters="sRGB">
<feFlood flood-opacity="0" result="BackgroundImageFix"/>
<feColorMatrix in="SourceAlpha" type="matrix" values="0 0 0 0 0 0 0 0 0 0 0 0 0 0 0 0 0 0 127 0" result="hardAlpha"/>
<feOffset dy="4"/>
<feGaussianBlur stdDeviation="2"/>
<feComposite in2="hardAlpha" operator="out"/>
<feColorMatrix type="matrix" values="0 0 0 0 0 0 0 0 0 0 0 0 0 0 0 0 0 0 0.25 0"/>
<feBlend mode="normal" in2="BackgroundImageFix" result="effect1_dropShadow_23_66"/>
<feBlend mode="normal" in="SourceGraphic" in2="effect1_dropShadow_23_66" result="shape"/>
</filter>
<filter id="filter6_d_23_66" x="0.259766" y="239.5" width="1309.62" height="319" filterUnits="userSpaceOnUse" color-interpolation-filters="sRGB">
<feFlood flood-opacity="0" result="BackgroundImageFix"/>
<feColorMatrix in="SourceAlpha" type="matrix" values="0 0 0 0 0 0 0 0 0 0 0 0 0 0 0 0 0 0 127 0" result="hardAlpha"/>
<feOffset dx="2" dy="4"/>
<feGaussianBlur stdDeviation="4"/>
<feComposite in2="hardAlpha" operator="out"/>
<feColorMatrix type="matrix" values="0 0 0 0 0 0 0 0 0 0 0 0 0 0 0 0 0 0 1 0"/>
<feBlend mode="normal" in2="BackgroundImageFix" result="effect1_dropShadow_23_66"/>
<feBlend mode="normal" in="SourceGraphic" in2="effect1_dropShadow_23_66" result="shape"/>
</filter>
</defs>
</svg>
