<svg width="878" height="701" viewBox="0 0 878 701" fill="none" xmlns="http://www.w3.org/2000/svg">
<g filter="url(#filter0_d_23_66)">
<path fill-rule="evenodd" clip-rule="evenodd" d="M294.462 79.6691L243.532 77L243.394 79.6353C224.778 91.5641 203.825 221.587 195.471 380.999C187.117 540.411 194.363 671.912 211.63 685.722L211.607 686.164L212.31 686.201C213.019 686.635 213.745 686.875 214.487 686.914C215.228 686.953 215.975 686.79 216.726 686.432L262.537 688.833L294.462 79.6691Z" fill="#B02727"/>
</g>
<g filter="url(#filter1_d_23_66)">
<path fill-rule="evenodd" clip-rule="evenodd" d="M578 79.6691L627.55 77L627.564 77.2673C646.337 76.4245 668.495 211.957 677.07 380.13C685.65 548.407 677.381 685.643 658.601 686.655C657.949 686.69 657.292 686.56 656.633 686.27L609.06 688.833L578 79.6691Z" fill="#B02727"/>
</g>
<g filter="url(#filter2_d_23_66)">
<rect x="410" y="74" width="56" height="144" fill="#B02727"/>
</g>
<g filter="url(#filter3_d_23_66)">
<path fill-rule="evenodd" clip-rule="evenodd" d="M138.43 234L740.57 234C742.294 212.999 747.841 194.035 756 179.136V178L122.368 178C130.872 193.065 136.662 212.461 138.43 234Z" fill="#B02727"/>
</g>
<path fill-rule="evenodd" clip-rule="evenodd" d="M200.79 689C196.935 660.503 194.276 618.829 193 568H269L264.196 689H200.79Z" fill="black"/>
<path fill-rule="evenodd" clip-rule="evenodd" d="M672.108 689C676.013 660.503 678.708 618.829 680 568H603L607.868 689H672.108Z" fill="black"/>
<g filter="url(#filter4_d_23_66)">
<rect x="25" y="41" width="828" height="42" fill="#B02727"/>
</g>
<g filter="url(#filter5_d_23_66)">
<path fill-rule="evenodd" clip-rule="evenodd" d="M439 34.1463C679.244 34.1463 874 19.1315 874 0.609756V50L4 50L4 0.609756C4 19.1315 198.756 34.1463 439 34.1463ZM4.07046 0C4.02355 0.202818 4 0.406075 4 0.609756V0L4.07046 0ZM873.93 0L874 0V0.609756C874 0.406075 873.976 0.202818 873.93 0Z" fill="black"/>
</g>
<rect x="419" y="108" width="39" height="97" fill="#6A0000" stroke="#D39817" stroke-width="2"/>
<path d="M428.084 118.72H449.06V120.424H428.084V118.72ZM437.516 116.464H439.364V138.52H437.516V116.464ZM436.94 130.192L438.452 130.864C437.892 131.616 437.236 132.352 436.484 133.072C435.732 133.792 434.924 134.472 434.06 135.112C433.212 135.736 432.332 136.304 431.42 136.816C430.508 137.328 429.612 137.768 428.732 138.136C428.636 137.992 428.516 137.824 428.372 137.632C428.228 137.44 428.076 137.248 427.916 137.056C427.772 136.88 427.628 136.736 427.484 136.624C428.348 136.32 429.228 135.944 430.124 135.496C431.036 135.032 431.916 134.52 432.764 133.96C433.612 133.384 434.396 132.776 435.116 132.136C435.836 131.496 436.444 130.848 436.94 130.192ZM439.964 130.216C440.492 130.888 441.116 131.544 441.836 132.184C442.572 132.808 443.372 133.408 444.236 133.984C445.1 134.544 445.988 135.056 446.9 135.52C447.812 135.968 448.708 136.336 449.588 136.624C449.46 136.752 449.316 136.904 449.156 137.08C448.996 137.272 448.844 137.464 448.7 137.656C448.556 137.848 448.428 138.024 448.316 138.184C447.436 137.832 446.532 137.392 445.604 136.864C444.692 136.352 443.796 135.776 442.916 135.136C442.052 134.496 441.244 133.816 440.492 133.096C439.74 132.376 439.076 131.64 438.5 130.888L439.964 130.216ZM431.924 127.504V129.832H445.268V127.504H431.924ZM431.924 123.88V126.16H445.268V123.88H431.924ZM430.172 122.44H447.116V131.272H430.172V122.44ZM428.06 148.224H448.988V149.952H428.06V148.224ZM437.492 145.416H439.388V149.112H437.492V145.416ZM432.788 153.72V157.68H444.332V153.72H432.788ZM431.012 152.136H446.228V159.264H431.012V152.136ZM442.988 161.472L444.596 160.68C445.14 161.208 445.7 161.784 446.276 162.408C446.868 163.032 447.42 163.648 447.932 164.256C448.444 164.848 448.86 165.384 449.18 165.864L447.452 166.8C447.164 166.32 446.764 165.776 446.252 165.168C445.756 164.544 445.22 163.912 444.644 163.272C444.068 162.616 443.516 162.016 442.988 161.472ZM437.516 158.592H439.388V165.432C439.388 165.96 439.316 166.36 439.172 166.632C439.028 166.904 438.74 167.112 438.308 167.256C437.892 167.384 437.332 167.456 436.628 167.472C435.94 167.504 435.068 167.52 434.012 167.52C433.964 167.264 433.876 166.976 433.748 166.656C433.636 166.352 433.516 166.072 433.388 165.816C433.948 165.832 434.468 165.84 434.948 165.84C435.444 165.84 435.868 165.84 436.22 165.84C436.588 165.84 436.844 165.84 436.988 165.84C437.196 165.824 437.332 165.784 437.396 165.72C437.476 165.656 437.516 165.544 437.516 165.384V158.592ZM431.996 160.656L433.82 161.256C433.452 161.88 433.004 162.52 432.476 163.176C431.964 163.832 431.412 164.456 430.82 165.048C430.244 165.64 429.652 166.168 429.044 166.632C428.868 166.44 428.636 166.24 428.348 166.032C428.06 165.84 427.812 165.688 427.604 165.576C428.196 165.144 428.772 164.656 429.332 164.112C429.892 163.568 430.404 163 430.868 162.408C431.332 161.8 431.708 161.216 431.996 160.656ZM428.636 177.224H437.036V178.832H428.636V177.224ZM431.156 193.472H437.9V194.984H431.156V193.472ZM431.156 189.488H437.924V190.928H431.156V189.488ZM427.532 181.712H439.94V183.32H427.532V181.712ZM432.332 174.632H434.012V182.72H432.332V174.632ZM438.692 175.256L440.324 175.76C439.012 178.752 437.308 181.392 435.212 183.68C433.132 185.952 430.772 187.816 428.132 189.272C428.068 189.144 427.964 188.992 427.82 188.816C427.692 188.624 427.556 188.432 427.412 188.24C427.268 188.048 427.132 187.904 427.004 187.808C429.628 186.496 431.94 184.776 433.94 182.648C435.94 180.52 437.524 178.056 438.692 175.256ZM431.708 185.648H437.828V187.136H431.708V196.4H430.076V186.704L431.06 185.648H431.708ZM437.132 185.648H438.86V196.064H437.132V185.648ZM440.972 175.808H448.124V177.512H442.748V196.52H440.972V175.808ZM447.692 175.808H448.028L448.316 175.736L449.612 176.552C449.116 177.704 448.556 178.928 447.932 180.224C447.324 181.504 446.724 182.704 446.132 183.824C446.996 184.56 447.652 185.272 448.1 185.96C448.548 186.632 448.86 187.272 449.036 187.88C449.228 188.488 449.324 189.08 449.324 189.656C449.324 190.408 449.228 191.056 449.036 191.6C448.86 192.144 448.548 192.552 448.1 192.824C447.684 193.112 447.14 193.296 446.468 193.376C446.148 193.408 445.788 193.424 445.388 193.424C444.988 193.424 444.596 193.416 444.212 193.4C444.196 193.144 444.14 192.848 444.044 192.512C443.964 192.176 443.844 191.88 443.684 191.624C444.084 191.656 444.46 191.68 444.812 191.696C445.164 191.696 445.468 191.688 445.724 191.672C445.948 191.672 446.156 191.648 446.348 191.6C446.54 191.552 446.708 191.488 446.852 191.408C447.124 191.248 447.316 191 447.428 190.664C447.54 190.328 447.588 189.944 447.572 189.512C447.572 188.744 447.34 187.912 446.876 187.016C446.412 186.104 445.548 185.12 444.284 184.064C444.604 183.44 444.924 182.784 445.244 182.096C445.564 181.392 445.876 180.696 446.18 180.008C446.484 179.32 446.764 178.664 447.02 178.04C447.276 177.416 447.5 176.864 447.692 176.384V175.808Z" fill="#FFCC00"/>
<defs>
<filter id="filter0_d_23_66" x="188" y="73" width="118.462" height="627.833" filterUnits="userSpaceOnUse" color-interpolation-filters="sRGB">
<feFlood flood-opacity="0" result="BackgroundImageFix"/>
<feColorMatrix in="SourceAlpha" type="matrix" values="0 0 0 0 0 0 0 0 0 0 0 0 0 0 0 0 0 0 127 0" result="hardAlpha"/>
<feOffset dx="4" dy="4"/>
<feGaussianBlur stdDeviation="4"/>
<feComposite in2="hardAlpha" operator="out"/>
<feColorMatrix type="matrix" values="0 0 0 0 0 0 0 0 0 0 0 0 0 0 0 0 0 0 0.78 0"/>
<feBlend mode="normal" in2="BackgroundImageFix" result="effect1_dropShadow_23_66"/>
<feBlend mode="normal" in="SourceGraphic" in2="effect1_dropShadow_23_66" result="shape"/>
</filter>
<filter id="filter1_d_23_66" x="574" y="73" width="118.46" height="627.833" filterUnits="userSpaceOnUse" color-interpolation-filters="sRGB">
<feFlood flood-opacity="0" result="BackgroundImageFix"/>
<feColorMatrix in="SourceAlpha" type="matrix" values="0 0 0 0 0 0 0 0 0 0 0 0 0 0 0 0 0 0 127 0" result="hardAlpha"/>
<feOffset dx="4" dy="4"/>
<feGaussianBlur stdDeviation="4"/>
<feComposite in2="hardAlpha" operator="out"/>
<feColorMatrix type="matrix" values="0 0 0 0 0 0 0 0 0 0 0 0 0 0 0 0 0 0 0.74 0"/>
<feBlend mode="normal" in2="BackgroundImageFix" result="effect1_dropShadow_23_66"/>
<feBlend mode="normal" in="SourceGraphic" in2="effect1_dropShadow_23_66" result="shape"/>
</filter>
<filter id="filter2_d_23_66" x="406" y="70" width="72" height="160" filterUnits="userSpaceOnUse" color-interpolation-filters="sRGB">
<feFlood flood-opacity="0" result="BackgroundImageFix"/>
<feColorMatrix in="SourceAlpha" type="matrix" values="0 0 0 0 0 0 0 0 0 0 0 0 0 0 0 0 0 0 127 0" result="hardAlpha"/>
<feOffset dx="4" dy="4"/>
<feGaussianBlur stdDeviation="4"/>
<feComposite in2="hardAlpha" operator="out"/>
<feColorMatrix type="matrix" values="0 0 0 0 0 0 0 0 0 0 0 0 0 0 0 0 0 0 0.78 0"/>
<feBlend mode="normal" in2="BackgroundImageFix" result="effect1_dropShadow_23_66"/>
<feBlend mode="normal" in="SourceGraphic" in2="effect1_dropShadow_23_66" result="shape"/>
</filter>
<filter id="filter3_d_23_66" x="114.368" y="174" width="649.632" height="72" filterUnits="userSpaceOnUse" color-interpolation-filters="sRGB">
<feFlood flood-opacity="0" result="BackgroundImageFix"/>
<feColorMatrix in="SourceAlpha" type="matrix" values="0 0 0 0 0 0 0 0 0 0 0 0 0 0 0 0 0 0 127 0" result="hardAlpha"/>
<feOffset dy="4"/>
<feGaussianBlur stdDeviation="4"/>
<feComposite in2="hardAlpha" operator="out"/>
<feColorMatrix type="matrix" values="0 0 0 0 0 0 0 0 0 0 0 0 0 0 0 0 0 0 0.7 0"/>
<feBlend mode="normal" in2="BackgroundImageFix" result="effect1_dropShadow_23_66"/>
<feBlend mode="normal" in="SourceGraphic" in2="effect1_dropShadow_23_66" result="shape"/>
</filter>
<filter id="filter4_d_23_66" x="17" y="37" width="844" height="58" filterUnits="userSpaceOnUse" color-interpolation-filters="sRGB">
<feFlood flood-opacity="0" result="BackgroundImageFix"/>
<feColorMatrix in="SourceAlpha" type="matrix" values="0 0 0 0 0 0 0 0 0 0 0 0 0 0 0 0 0 0 127 0" result="hardAlpha"/>
<feOffset dy="4"/>
<feGaussianBlur stdDeviation="4"/>
<feComposite in2="hardAlpha" operator="out"/>
<feColorMatrix type="matrix" values="0 0 0 0 0 0 0 0 0 0 0 0 0 0 0 0 0 0 0.56 0"/>
<feBlend mode="normal" in2="BackgroundImageFix" result="effect1_dropShadow_23_66"/>
<feBlend mode="normal" in="SourceGraphic" in2="effect1_dropShadow_23_66" result="shape"/>
</filter>
<filter id="filter5_d_23_66" x="0" y="0" width="878" height="58" filterUnits="userSpaceOnUse" color-interpolation-filters="sRGB">
<feFlood flood-opacity="0" result="BackgroundImageFix"/>
<feColorMatrix in="SourceAlpha" type="matrix" values="0 0 0 0 0 0 0 0 0 0 0 0 0 0 0 0 0 0 127 0" result="hardAlpha"/>
<feOffset dy="4"/>
<feGaussianBlur stdDeviation="2"/>
<feComposite in2="hardAlpha" operator="out"/>
<feColorMatrix type="matrix" values="0 0 0 0 0 0 0 0 0 0 0 0 0 0 0 0 0 0 0.25 0"/>
<feBlend mode="normal" in2="BackgroundImageFix" result="effect1_dropShadow_23_66"/>
<feBlend mode="normal" in="SourceGraphic" in2="effect1_dropShadow_23_66" result="shape"/>
</filter>
</defs>
</svg>
