<svg version="1.1" id="Calque_1" xmlns="http://www.w3.org/2000/svg" xmlns:xlink="http://www.w3.org/1999/xlink" x="0px" y="0px" width="110px" height="47.207px" viewBox="138.5 0.777 110 47.207" enable-background="new 138.5 0.777 110 47.207" xml:space="preserve">
<path id="Forme_1" fill="#0079be85" 
d="M141.643,2.841l-0.286,0.286v0.571l-0.286,0.286H140.5l-0.286,0.572l-0.286,0.286l0.286,0.286  l0.286,0.571h-0.286l-0.571,0.286l0.286,0.572v0.571l0.286,0.571h0.571l0.571,0.286v0.857h0.286l0.286,0.286l-0.286,0.571  l-0.286,0.572l-0.286,0.571l-0.571,0.286l0.286,0.286l0.286,0.286v0.286l-0.286,0.286l-0.286,0.286l0.286,0.286v0.286l-0.571,0.571  v0.572l0.286,0.286h-0.571l-0.286,0.571l0.286,0.286l0.286,0.286l0.286,0.572h-0.286l-0.286,0.286v1.143l0.571,0.286l-0.286,0.572  l-0.286,0.286l-0.286,0.571v0.571l-0.857,0.286v2c0,0,0.429,1.643,2.857,1.143c2.428-0.5,3.643-0.929,4-0.571  c0.236,0.252,0.429,0.542,0.571,0.857v0.572l0.286,0.571v0.571l-0.286,0.286l-0.286,0.286v0.857l-0.286,0.286l-1.429-0.286h-0.857  l-0.571,0.286l-0.571-0.286h-1.429l-0.571,0.571h-0.571l-0.286-0.286l-0.857,0.286v0.286l0.286,0.572l-0.286,1.143v1.143  c0.166,0.213,0.358,0.406,0.571,0.571c0.095,0,1.429,0.571,1.429,0.571s0.81,0.262,0.857,0.286c0.048,0.024,0.857,0.286,0.857,0.286  v0.571c-0.129,0.187-0.345,0.294-0.571,0.286c-0.392-0.044-0.776-0.14-1.143-0.286c0,0,0.071,0.119-0.286,0l-0.857-0.286  c0,0-1.143,0.81-0.571,1.714s1.143,1.143,1.143,1.143v0.857l0.571-0.286c0,0,0.619-0.429,0.571-0.286  c-0.047,0.143-0.143,0.214,0,0.286c0.208,0.172,0.4,0.363,0.572,0.571v0.571l-0.286,0.286l-0.286-0.286h-2l-0.571,0.857v0.571  l0.857,0.571l0.572,0.571l0.571,0.572l0.286,0.571h0.571l0.572,0.286c0.103,0.087,0.199,0.183,0.286,0.286  c0.15,0.264,0.248,0.556,0.286,0.857l-0.286,0.571v0.857l0.286,0.572v0.571c0.18,0.114,0.372,0.21,0.571,0.286v0.571  c0,0,4.262,0.762,6,0.857c1.738,0.095,1.786,0.381,2,0.286s2,0,2,0h6.286l4,0.286h1.143c0,0,0.667,0.119,0.857,0  c0.277-0.121,0.563-0.216,0.857-0.286l0.286,0.286h2.286l0.857,0.286h0.571l1.143-0.286h0.286l0.571,0.286l0.857-0.286l0.857,0.286  h0.571l0.571,0.286l0.572-0.286l-0.286-0.286l0.572-0.286l0.286,0.286l0.286,0.286h0.571l-0.286-0.286h0.571l0.857,0.571v-0.571  l2-0.286l0.286,0.286l0.571-0.286l2.341,0.26l0.23,0.025l-1.143,0.286l-0.286,0.572l1.429-0.572h0.286l0.571,0.286l-0.286-0.571  l0.286-0.286h4c0,0,0.524-0.381,0.571-0.286c0.048,0.095,0.286,0,0.286,0v-0.857l-0.286-0.286v-0.571l0.857-0.571l0.286-0.286  c0,0,0.061-0.007,0.143-0.014c0.185-0.016,0.479-0.036,0.429,0.014c-0.071,0.071,0.286,0,0.286,0l0.286-0.286v0.572h-1.143v0.286  l-0.286,0.571l-0.286,0.286l0.286,0.572l0.286,0.571l0.571,0.286h1.714l0.571-0.286h0.572v-0.571l0.571,0.286h0.572l0.285,0.286  h1.143l0.286-0.286l0.857,0.286l0.571-0.571l0.571,0.571l3.143-0.286l1.144,0.286h2l0.285-0.286l0.571-0.286l0.286,0.286h2.857  l0.856,0.286l-0.285-0.571c0,0,0.523-0.143,0.571,0c0.027,0.093,0.027,0.192,0,0.286h0.571l0.286-0.572l0.571,0.572  c0.465-0.145,0.943-0.241,1.429-0.286h0.571l0.571-0.286c0,0,0.477,0.143,0.571,0c0.095-0.143,0.571-0.143,0.571,0  c-0.065,0.204-0.162,0.397-0.285,0.572c0,0-0.786,0.071,0.571,0c1.356-0.072,1.429,0,1.429,0l0.571-0.286  c0.048-0.024,0.856,0,0.856,0l0.286,0.286c0.28,0.077,0.576,0.077,0.857,0c0.548-0.119,0.856,0.119,1.143,0s1.143,0,1.143,0v-0.857  c0,0-0.81,0.262-0.856,0.286c-0.048,0.024-0.857,0-0.857,0v-0.571l-0.857,0.286l-0.857-0.571c-0.285,0.024-0.571,0.024-0.856,0  c-0.19-0.024-0.382-0.024-0.571,0h-2l-0.572-0.286l-0.856,0.286l-0.286-0.286l-1.143-0.286h-0.571l-0.857,0.571l-0.286-0.286  l-0.571-0.286l-0.285-0.572c0,0,0.904-0.023,0.856,0l0.572-0.286l0.571,0.286l1.143-0.286l0.286,0.572l0.571-0.286l0.856-0.286  c0.19,0.014,0.382,0.014,0.572,0c0.262-0.023,1.143,0,1.143,0l0.857,0.286h4.285l0.286-0.286l-0.286-0.571l0.571-0.571l0.571,0.857  l0.857-0.571l0.286-0.286l1.143-0.286c0.076,0.112,0.173,0.209,0.286,0.286c0.197,0.081,0.388,0.176,0.571,0.286l0.285,0.286  c0.284-0.037,0.573-0.037,0.857,0c0.38,0.036,0.763,0.036,1.143,0c0.181-0.114,0.372-0.21,0.571-0.286  c0.144-0.024,0.857-0.286,0.857-0.286l0.571-0.572h2.571l2.857-0.286l2,0.286h1.715c0,0,1.595,0.118,1.714,0  c0.119-0.118,1.143-0.286,1.143-0.286c0.474,0.068,0.955,0.068,1.429,0c0.69-0.118,1.977,0.118,2,0  c0.066-0.23,0.308-0.363,0.538-0.297c0.012,0.003,0.022,0.007,0.033,0.011c0.381,0.097,2,0,2,0l-0.571-0.571  c0,0-0.357-0.143-0.857-0.286c-0.652-0.173-1.324-0.27-2-0.286c-0.928-0.046-2.548,0.094-2.571,0  c-0.023-0.094-1.048-0.335-1.429-0.286s-2.285,0-2.285,0H236.5l-0.857,0.286l-2,0.286l-0.285-0.286h-1.429  c0,0-0.381-0.572-0.571-0.572c-0.191,0,0.856-0.286,0.856-0.286h1.715c0,0,1.381-0.358,2-0.286c0.855,0.061,1.715,0.061,2.571,0  c0.166-0.046,1.571,0.118,1.714,0c0.144-0.118-0.048-0.049,0.572,0c0.618,0.049,2,0.286,2,0.286  c0.237-0.143,0.476-0.216,0.571-0.286c0.095-0.07,0.333,0.094,1.429,0c1.095-0.094,1.428,0.094,1.714,0s0.476,0.07,0.857,0  c0.38-0.07,0.356,0.189,0.571,0c0.214-0.189,0.643-0.597,0.285-0.571c-0.189,0.016-0.381,0.016-0.571,0  c0.071-0.143,0.286-0.857,0.286-0.857h0.571c-0.155-0.154-0.256-0.354-0.286-0.571c0.025-0.19,0.025-0.382,0-0.571  c-0.135-0.18-0.346-0.287-0.571-0.286c-0.093,0.027-0.192,0.027-0.285,0c-0.05-0.21-0.148-0.406-0.286-0.572  c-0.127-0.188-0.344-0.297-0.571-0.286c-0.334-0.046-2,0-2,0c-0.143,0-1.714-0.286-1.714-0.286l-1.144,0.286l-1.143-0.571l-2-0.286  h-0.571c-0.378-0.074-0.766-0.074-1.143,0c-0.667,0.12-0.572,0-0.572,0l-0.856-0.286l0.856-0.286c0,0-0.977-0.073,0.857-0.286  c1.833-0.213,1.571-0.263,2.286-0.286c0.714-0.022,0.404,0.046,1.143,0c0.737-0.046,0,0.094,1.143,0  c1.144-0.094,1.095,0.094,1.429,0c0.333-0.094,0.619,0.022,0.857,0c0.237-0.022,0.429-0.12,0.571,0s-0.19,0.571,0.286,0.286  c0.476-0.286,0.262,0.523,0.571-0.286c0.166-0.359,0.263-0.747,0.285-1.143v-0.857l-0.285-0.286l-0.571-0.286  c0,0-0.167-0.406-0.286-0.286c-0.119,0.12-0.905-0.121-0.857,0c0.048,0.12-0.071,0.379-0.856,0.286  c-0.475-0.057-0.955-0.057-1.429,0c-0.644,0.023-0.667,0-1.144,0s-0.119-0.073-0.571,0s-2.285,0-2.285,0s0.285-0.216-0.571,0  c-0.857,0.215-0.857,0.286-0.857,0.286s-0.405-0.168-0.571,0c-0.167,0.168-0.738,0.618-0.857,0.571s-0.643,0.309-0.857,0.286  c-0.214-0.022-1.143,0-1.143,0c-0.214-0.119-0.334-0.668-0.286-0.857c0.075-0.2,0.171-0.391,0.286-0.571l1.143-0.286  c0.285,0.025,0.572,0.025,0.857,0c0.286-0.046,0.523,0.023,1.143,0c0.619-0.022,0.286,0.046,1.144,0  c0.856-0.046,2.856-0.286,2.856-0.286l-1.714-0.571c-0.487-0.162-0.965-0.353-1.429-0.571c-0.238-0.166-0.881-0.429-0.857-0.572  c0.026-0.131-0.059-0.259-0.19-0.286c-0.031-0.006-0.063-0.006-0.095,0c-0.095,0.014-0.191,0.014-0.286,0  c-0.357,0-0.596-0.596-0.857-0.571s-0.31,0.166-0.571,0s-0.31-0.406-0.856-0.286c-0.317,0.072-0.648-0.038-0.857-0.286  c0,0,0.381-0.192,0.571-0.286c0.19-0.094,0.714-0.168,0.857-0.286c0.143-0.118-0.429-0.286,0.571-0.286s1.714,0,1.714,0l0.286-0.286  l0.857-0.286c0,0-0.024,0.046,0.285,0c0.285-0.025,0.572-0.025,0.857,0l0.571-0.286c0.055-0.088,0.055-0.198,0-0.286  c-0.096-0.143,0.023-0.311-0.286-0.286c-0.31,0.025,0.262-0.192-1.143,0c-1.405,0.191-1.429,0.286-1.429,0.286l-1.143-0.572h-0.857  l0.571-1.143c0.238,0,0.834,0.07,0.857,0c0.023-0.07,0.166-0.025,0.571,0c0.405,0.025,0.405-0.049,1.429,0s1.286,0.094,1.429,0  c0.202-0.178,0.394-0.369,0.571-0.571l0.286-0.572l-0.286-0.571c-0.022-0.094-0.022-0.192,0-0.286  c0.023-0.261,0.571-0.549,0.286-0.571c-0.094-0.025-0.192-0.025-0.286,0l-0.571-0.286l-0.286-0.286c0,0,0.144-0.691,0.286-0.571  s0.381-0.073,0,0s-0.096-0.097-0.571,0c-0.477,0.097-0.571,0-0.571,0l-0.571-0.571v-0.572l0.856,0.286l0.571-0.572l0.286-0.286  h0.286c0,0,0.5-0.382,0.856-0.286c0.357,0.097,0.69,0.07,0.571,0s-1.143-0.571-1.143-0.571c-0.115,0.202-0.341,0.314-0.571,0.286  c-0.19-0.017-0.382-0.017-0.571,0h-0.286c0,0-0.619-0.073,0.286-0.286c0.904-0.213,0.976-0.263,1.143-0.286  c0.166-0.023-0.048,0.118,0.286,0c0.333-0.118-0.215,0.094,0.285,0c0.5-0.094,0.644,0.118,0.857,0  c0.166-0.138,0.361-0.235,0.571-0.286c0.19,0,0.215-0.049,0.286-0.286s0.237-0.501,0-0.571c-0.238-0.07-0.12,0.046-0.571,0  c-0.38-0.048-0.764-0.048-1.144,0c-0.262,0.049-0.714-0.073-0.856,0c-0.268,0.145-0.558,0.242-0.857,0.286c-0.263,0-0.286,0-0.286,0  s-0.571,0.261-0.285-0.286c0.105-0.185,0.2-0.376,0.285-0.571l0.571-0.286l0.857-0.286c0.174,0.113,0.397,0.113,0.571,0  c0.347-0.2,0.743-0.299,1.144-0.286c0.451,0,1.047,0.143,1.143,0c0.168-0.133,0.363-0.23,0.571-0.286c0,0-1.167-0.667-1.143-0.571  c0.023,0.095-0.453-0.214-0.857,0c-0.354,0.182-0.745,0.279-1.143,0.286H236.5c-0.286,0-0.31,0.286-1.143,0.286h-1.144  c0,0-0.381-0.19-0.285-0.286l0.285-0.286c0.381,0.025,0.763,0.025,1.144,0c0.482-0.059,0.96-0.155,1.429-0.286  c0.943-0.169,1.898-0.264,2.856-0.286c0.219-0.023,0.422-0.125,0.571-0.286c-0.167-0.326-0.491-0.542-0.856-0.571  c-0.571,0-0.405,0.167-0.857,0c-0.206-0.06-0.4-0.156-0.571-0.286c0,0,0.762-0.405-0.571-0.286  c-1.334,0.119-2.857,0.286-2.857,0.286l-2,0.286c0,0,0.119,0.048-0.571,0c-0.666-0.048-1.334-0.048-2,0  c-0.31,0.048-0.238-0.071-0.857,0s-1.048,0.167-1.143,0c-0.096-0.167,0.285-0.143,0.571-0.286c0.228-0.15,0.422-0.344,0.571-0.571  c-0.714,0-0.571,0.143-0.857,0c-0.285-0.143-0.262-0.072-0.571,0c-0.156,0.003-0.282,0.129-0.285,0.286L226.5,10.27  c0.794-1.27-1.123-0.317-1.143-0.286l-0.571,0.286l-0.572-0.286c0,0,0.31-0.595,0.286-0.571c0.19,0.012,0.381,0.012,0.571,0  c0.929,0.524,2.523-0.595,2.571-0.571c0.048,0.023,0.31-0.024,0.286,0c0.085,0.062,0.2,0.062,0.285,0  c0.167-0.071-0.095,0.071,0.286-0.286c0.381-0.357,0.595-0.643,0.571-0.572c-0.023,0.072,0.429,0.024,0.571,0  c0.144-0.023,0.619,0.595,0.857,0.572c0.237-0.024-0.263-0.095,0.571,0c0.378,0.068,0.765,0.068,1.143,0l-0.285-0.572h0.571  c0.26-0.227,0.548-0.418,0.857-0.571c0.28-0.075,0.576-0.075,0.856,0c0.167,0,0.096,0.238,0.286,0  c0.083-0.107,0.179-0.203,0.286-0.286l0.285-0.286c0.229-0.015,0.446,0.094,0.571,0.286c0.238,0.333,0.548,0.31,0.571,0.571  c0.023,0.262-0.119,0,0.286,0.286c0.404,0.286,0.833,0.214,1.143,0.286c0.31,0.071-0.262-0.072,0.571,0  c0.834,0.071,1.405-0.072,1.429,0c0.023,0.071,1.429,0,1.429,0V7.698c0.189-0.024,0.382-0.024,0.571,0c0.095,0-0.167,0.095,0.286,0  c0.452-0.095,0.619,0.143,0.857,0c0.237-0.143,0.262-0.405,0.571-0.286c0.309,0.119-0.191-0.071,0.571,0  c0.762,0.071,0.595-0.048,0.857,0c0.189,0.027,0.381,0.027,0.571,0V7.127c0,0,0.309-0.048-0.286-0.286  c-0.395-0.163-0.776-0.354-1.143-0.571c-0.273-0.12-0.584-0.12-0.857,0c-0.523,0.19-0.762,0.19-0.857,0.286  c-0.248,0.183-0.548,0.283-0.856,0.286c-0.5,0.048-0.477-0.071-0.857,0c-0.281,0.072-0.576,0.072-0.857,0  c-0.284-0.038-0.572-0.038-0.856,0c0,0,0.189-0.024-0.572,0c-0.762,0.023-0.69,0-1.143,0H236.5c-0.185,0.069-0.388,0.069-0.571,0  c-0.286-0.119,0.095-0.381-0.571-0.286c-0.667,0.095-0.857,0-0.857,0l-0.571,0.571c0,0-1.167-0.095-1.143,0l0,0  c-0.078,0.112-0.175,0.208-0.286,0.286c-0.112,0.077-0.209,0.174-0.286,0.286c-0.091-0.039-0.194-0.039-0.285,0  c-0.285,0.025-0.572,0.025-0.857,0c-0.188-0.051-0.385-0.051-0.571,0c-0.214,0.095,0.881,0.095-0.286,0  c-1.166-0.095-1.428,0-1.428,0c-0.186,0.063-0.387,0.063-0.572,0c-0.19-0.119-0.548,0.024-0.571,0c-0.284-0.038-0.572-0.038-0.856,0  c-0.189,0.029-0.383,0.029-0.572,0h-0.285c-0.19,0.016-0.382,0.016-0.571,0c-0.19,0.013-0.382,0.013-0.571,0  c-0.119-0.068-0.218-0.167-0.286-0.286h-0.286V7.127l-1.428-0.286h-0.857c-0.096,0-1.286,0.119-1.715,0  c-0.428-0.119-1.714,0-1.714,0l-1.714-0.286h-1.429c0,0,0.071-0.024-0.286,0c-0.357,0.023-1.143,0-1.143,0H212.5l-1.714-0.286  c0,0,0.166-0.143-0.286,0c-0.456,0.177-0.939,0.273-1.429,0.286h-3.429c-0.373-0.125-0.755-0.22-1.143-0.286  c-0.333-0.024-2.286,0-2.286,0h-2c0,0-1.047-0.024-1.143,0c-0.095,0.023,0.167,0.119-0.285,0c-0.453-0.119-1.381-0.405-1.715-0.286  c-0.333,0.119-0.285,0.429-0.571,0.286c-0.351-0.192-0.744-0.291-1.143-0.286c-0.285,0.026-0.572,0.026-0.857,0  c0,0-0.548,0.072-0.571,0c-0.024-0.071-0.214,0.072-0.572,0c-0.284-0.04-0.573-0.04-0.857,0c-0.666,0.04-1.334,0.04-2,0  c-0.486-0.035-0.966-0.131-1.429-0.286h-1.428c-0.187,0.053-0.385,0.053-0.572,0c-0.238-0.095-1.428-0.286-1.428-0.286l-0.572-0.286  h-0.286c-0.738,0-1.238-0.19-1.714,0c-0.204,0.065-0.397,0.161-0.571,0.286c0,0-0.119-0.786,0-0.857  c0.119-0.072-0.143,0.214,0.286,0s0.452-0.286,0.571-0.286s0.333,0.023,0.857,0c0.307-0.012,0.604-0.111,0.857-0.286  c0.036-0.14,0.145-0.25,0.286-0.286c0.214-0.023,0.119-0.309,0.572,0c0.452,0.31-0.119-0.047,0.571,0.286  c0.69,0.333,1.262,0.214,1.429,0.286c0.38,0.036,0.762,0.036,1.143,0c0,0-0.19-0.286,0.572,0c0.762,0.286-0.095,0.167,0.857,0.286  c0.951,0.063,1.906,0.063,2.857,0c0,0,0.405,0.143,0.572,0c0.17-0.132,0.364-0.229,0.571-0.286  c-0.048,0.047-0.167,0.047,0.286,0.286c0.268,0.142,0.557,0.239,0.856,0.286c0.285-0.021,0.572-0.021,0.857,0  c0.762,0.023,0.833-0.024,1.143,0c0.31,0.023,0.763-0.119,1.144,0s1.428,0.286,1.428,0.286s0.715,0.024,0.857,0s0.167,0.167,0.571,0  c0.405-0.167,0.596-0.19,0.857-0.286s0.238-0.357,0.571-0.286c0.334,0.071-0.095-0.072,0.286,0c0.381,0.071,0.69,0.333,0.856,0.286  c0.094-0.024,0.192-0.024,0.286,0c0.178-0.099,0.394-0.099,0.571,0c0.429,0.167,0.357,0.5,0.571,0.571  c0.188,0.039,0.383,0.039,0.571,0c0,0-0.333-0.476,0-0.571c0.334-0.095,0.405-0.381,0.572-0.286c0.187,0.05,0.384,0.05,0.571,0  c0,0,0.523,0.928,0.285,0.857c-0.237-0.071-0.452,0.143-0.571,0c-0.119-0.143-1.548,0.071,0,0s2-0.357,2.286-0.286  c0.284,0.037,0.572,0.037,0.856,0h1.144l1.429,0.286c0.119,0.095,0.119-0.167,0.571,0s0.856,0.286,0.856,0.286  c0.474,0.079,0.956,0.079,1.429,0c0.238-0.023,1.286-0.405,1.429-0.286s0.167-0.167,0.286,0c0.178,0.203,0.368,0.394,0.571,0.571  l0.857-0.286c0,0-0.172,0.095,0.285,0s0.686-0.381,0.857-0.286c0.171,0.095,0.857,0,0.857,0l0.285,0.286  c-0.042,0.116,0.018,0.244,0.133,0.286c0.05,0.018,0.104,0.018,0.153,0c0.213-0.04,0.411-0.139,0.571-0.286c0,0,0.066,0.167,0.285,0  c0.22-0.167,0.281,0.119,0.572,0.286c0.29,0.167-0.101,0.453,0.285,0.286c0.386-0.167,0.519-0.286,0.857-0.286  c0.338,0,0.471-0.476,0.857-0.286c0.386,0.191,0.352,0.429,0.571,0.286c0.183-0.109,0.374-0.205,0.571-0.286c0,0,0.09,0.095,0-0.286  c-0.061-0.186-0.061-0.386,0-0.571c0,0-0.457-0.357-0.571-0.286c-0.114,0.071-0.029,0-0.286,0s0.853-0.453-0.571-0.286  c-1.424,0.167-1.714,0.286-1.714,0.286s-0.006-0.381-0.286-0.286c-0.281,0.095-0.362-0.357-0.571,0  c-0.21,0.357,0.114-0.095-0.286,0.286c-0.399,0.381-0.571,0.286-0.571,0.286L220.5,4.556V4.27c0,0,0.757-0.214-0.286-0.572  c-1.042-0.357-1.143-0.571-1.143-0.571s-0.695,1.071-0.571,1.143c0.132,0.033,0.269,0.042,0.404,0.028  c-0.167-0.023,0.453-0.028,0.453-0.028s0.804,0.333,0.571,0.286c-0.233-0.048-0.958-0.5-1.715-0.286  c-0.757,0.214-0.553,0.214-0.856,0.286c-0.291,0.081-0.577,0.176-0.857,0.286c-0.115-0.18-0.211-0.372-0.286-0.571  c0,0-0.053-0.214,0.286-0.286c0.338-0.071,0.853-0.381,0.857-0.571s0.542-0.881,0-0.857c-0.543,0.023-0.743-0.548-1.144-0.286  c-0.399,0.262-0.957,0.238-1.143,0.571s-0.285,0.286-0.285,0.286c-0.473-0.082-0.956-0.082-1.429,0c0,0,0.519-0.119-0.286-0.286  s-0.743-0.381-0.857-0.286c-0.842,0.254-1.701,0.445-2.571,0.571c-0.095-0.016-0.19-0.016-0.285,0  c-0.485-0.043-0.965-0.139-1.429-0.286c-0.56-0.158-1.135-0.254-1.715-0.286c-0.237-0.024-0.386-0.191-0.856,0  c-0.204,0.067-0.396,0.163-0.571,0.286c0,0,0.328-0.143-0.572-0.286c-0.899-0.143-1.428-0.286-1.428-0.286s0.042,0.023-0.572,0  c-0.613-0.024-0.314-0.048-0.571,0c-0.257,0.047,0,0.571,0,0.571s0.019-0.119-0.285,0c-0.185,0.07-0.388,0.07-0.571,0  c0,0,0.447-0.167,0-0.286c-0.291-0.08-0.577-0.175-0.857-0.286c-0.189,0.026-0.382,0.026-0.571,0c-0.19-0.026-0.382-0.026-0.571,0  l-0.572,0.286l-0.285,0.286c-0.109-0.08-0.206-0.177-0.286-0.286c-0.177-0.204-0.367-0.395-0.571-0.572H196.5  c-0.185-0.065-0.387-0.065-0.571,0c-0.233,0.119-0.857,0-0.857,0l-0.857-0.286c0,0,0.114,0.024-0.286,0c-0.4-0.023-1.143,0-1.143,0  c-0.019,0.149-0.137,0.267-0.286,0.286c-0.281,0.072-1.005,0.357-1.143,0.286c-0.188-0.037-0.383-0.037-0.571,0l-0.857-0.286  l-1.714-0.286l-1.143,0.572h-0.286l-0.857-0.286c0,0,0.675-0.238,0.571-0.286c-0.104-0.047,0.175-0.5,0-0.571  c-0.175-0.071-0.857-0.286-0.857-0.286h-1.429c0,0-1.325,0.143-1.714,0c-0.39-0.143-1.429,0-1.429,0l-1.143,0.286h-0.857  l-0.286-0.286h-1.143c-0.691,0.143-0.572,0.286-0.572,0.286H176.5l-1.429-0.286H174.5l-0.857,0.286L172.5,0.841  c-0.39,0.058-0.772,0.154-1.143,0.286c0,0-1.371-0.071-1.428,0s-0.857,0-0.857,0h-6.286l-1.429,0.286h-4l-1.714,0.286h-2.857  l-1.429,0.286l-1.714-0.286L148.5,2.27c0,0-0.81-0.024-0.857,0c-0.048,0.023-2,0-2,0s-0.381,0.405-0.572,0.286  c-0.19-0.119-1.714,0.286-1.714,0.286H141.643z M168.5,4.27h0.857v0.571L168.5,4.27z M170.5,4.556l0.571-0.286  c0,0,0.029-0.477,0.286-0.286c0.175,0.124,0.368,0.22,0.572,0.286l-0.572,0.571h-0.571C170.804,4.841,170.5,4.556,170.5,4.556z   M173.357,4.556c0,0,0.123-0.751,0.195-0.584c0.071,0.167,0.091-0.273,0.091-0.273s0.005,0.357,0,0.572  C173.613,4.413,173.501,4.525,173.357,4.556z M174.5,4.27h0.571c0.138-0.02,0.266,0.076,0.286,0.214  c0.003,0.024,0.003,0.048,0,0.072c-0.028,0.309-0.571,0.286-0.571,0.286C174.662,4.667,174.566,4.474,174.5,4.27z M176.215,4.27  l0.286-0.286c0.077,0.112,0.173,0.209,0.286,0.286c0.137,0.071,0.291-0.072,0.286,0c-0.005,0.071,0.286,0,0.286,0  s0.553-0.167,0.572-0.286c0.053-0.129,0.156-0.232,0.286-0.286c-0.006,0.048-0.543-0.381,0.286,0  c0.465,0.217,0.942,0.408,1.429,0.572l-0.857,0.286L178.5,4.841c0,0-0.162,0.381-0.286,0.286c-0.125-0.095,0.434,0.071-0.286,0  c-0.476-0.042-0.954-0.042-1.429,0l-0.286-0.286C176.215,4.841,176.334,4.341,176.215,4.27z M180.786,4.841  c-0.077,0,0.101,0.571,0.286,0.571h0.286l0.572-0.571c-0.079-0.068-0.088-0.187-0.021-0.266c0.006-0.007,0.013-0.014,0.021-0.02  c0.108-0.175,0.108-0.396,0-0.572c-0.077-0.095-0.572,0-0.572,0c-0.12,0.067-0.218,0.166-0.286,0.286  c-0.067,0.12-0.166,0.218-0.286,0.286C180.786,4.556,180.863,4.841,180.786,4.841z M181.643,1.698c0,0,0.338-0.214,0-0.286  C180.635,1.2,181.643,1.698,181.643,1.698z M176.5,1.413h-0.857l-0.286,0.286l0.286,0.286h0.857V1.413z M199.072,4.27l0.286-0.286  l0.285,0.286c0,0,0.161,0.357,0,0.286c-0.188-0.038-0.383-0.038-0.571,0C199.09,4.461,199.09,4.364,199.072,4.27z M189.072,3.984  V3.698l0,0c0.232,0.045,0.294-0.169,0.286,0c-0.009,0.17,0,0.572,0,0.572C189.253,4.184,189.157,4.088,189.072,3.984z   M210.214,3.984c0.091-0.041,0.195-0.041,0.286,0c0.088,0.103,0.184,0.198,0.286,0.286h0.285c0,0,0.241-0.188,0-0.286  c-0.241-0.098-0.607-0.384-0.571-0.286l0,0L210.214,3.984l-0.168,0.336c-0.029,0.06-0.435,0.49,0.454,0.236l0,0  c-0.081,0.108-0.177,0.205-0.286,0.286c0.036-0.089,0.197,0.125,0,0C210.018,4.716,210.214,3.984,210.214,3.984z M212.214,3.698  c0.19-0.022,0.382-0.022,0.572,0c-0.01,0.045,0,0.286,0,0.286s0.276,0.072,0.285,0c0.009-0.071,0.223,0.152,0.286,0  c0.063-0.151,0.223-0.366,0.285-0.286c0.063,0.081-0.231-0.08,0,0c0.232,0.081,0.08-0.044,0.286,0c0.205,0.045,0.143-0.044,0.285,0  c0.144,0.045,0.144-0.071,0.286,0c0.143,0.072,0.188-0.241,0.286,0c0.098,0.241,0.339,0.206,0.285,0.286  c-0.028,0.093-0.028,0.193,0,0.286l0.286,0.286c-0.054,0.009-0.519,0.098-0.571,0c-0.055-0.098-0.366-0.206-0.286-0.286  c0.042-0.091,0.042-0.195,0-0.286c-0.095,0.01-0.19,0.01-0.286,0c0.009-0.018-0.268,0.027-0.285,0c-0.019-0.026-0.25,0.027-0.286,0  c-0.095-0.013-0.19-0.013-0.285,0c0.009,0.095,0.009,0.191,0,0.286c-0.019-0.072-0.206,0.08-0.286,0  c-0.08-0.081-0.295,0.107-0.285,0c0.008-0.107,0.125,0.161,0,0c-0.103-0.088-0.198-0.184-0.286-0.286l0,0L212.214,3.698z   M221.072,9.413c0,0-0.021-0.054-0.04-0.116c-0.031-0.104-0.055-0.231,0.04-0.17c0.188,0.051,0.385,0.051,0.571,0  c0,0,0.34-0.089,0.286,0c-0.028,0.093-0.028,0.192,0,0.286c0,0,0.188,0.429,0,0.286c-0.188-0.143,0.044-0.419-0.286-0.286  C221.459,9.486,221.255,9.486,221.072,9.413c0.18,0.202,0.37,0.393,0.571,0.571h0.286v0.286c0,0-0.357,0.348-0.286,0.286l0,0  c0,0-0.349-0.206-0.285-0.286c0.032-0.093,0.032-0.193,0-0.286L221.072,9.413z M229.072,13.984c0.08,0.099,0.571,0,0.571,0v0.286  c-0.081,0.108-0.177,0.204-0.285,0.286l0,0C229.249,14.372,229.154,14.181,229.072,13.984z M226.5,14.27  c0.187,0.053,0.385,0.053,0.571,0v0.286h-0.285C226.697,14.502,226.286,14.171,226.5,14.27z M232.5,28.27  c0,0,0.224-0.397,0.286-0.286c0.062,0.112,0.438,0.21,0.285,0.286c-0.152,0.076-0.17,0.343-0.285,0.286  c-0.093-0.032-0.193-0.032-0.286,0c-0.07,0.079-0.191,0.086-0.271,0.016c-0.006-0.005-0.011-0.01-0.016-0.016  C231.75,28.196,232.5,28.27,232.5,28.27z M232.786,28.841h0.856c0,0,0.536,0.076,0.571,0c0.036-0.076,0.232,0.076,0.286,0  c0.054-0.076,0.375-0.086,0.286,0c-0.09,0.085,0.125,0.326,0,0.286c-0.095-0.02-0.192-0.02-0.286,0c-0.19,0.016-0.382,0.016-0.571,0  c0.063-0.031,0.473,0.156-0.286,0S232.786,28.841,232.786,28.841L232.786,28.841z M231.643,32.27h0.571l0.286,0.286  c0,0-0.571,0.13-0.571,0C231.87,32.43,231.769,32.329,231.643,32.27z M223.072,37.413c0,0,0.17,0.143,0.071,0.143  s0.215,0.429,0.215,0.429s0.32,0.09,0.285,0c-0.036-0.092-0.036-0.194,0-0.286C223.679,37.599,223.072,37.413,223.072,37.413  l0.571,1.714c0,0,0.268,0.394,0.286,0.286c0.019-0.108,0.312-0.365,0.285-0.286s0.144-0.365,0-0.286  c-0.09,0.046-0.195,0.046-0.285,0L223.072,37.413z M213.643,42.841c0,0-0.259-0.375-0.285-0.286s-0.331,0.054-0.286,0  s-0.305-0.152,0-0.286c0.305-0.134,0.571-0.286,0.571-0.286l0,0c0.079,0.049,0.104,0.153,0.054,0.231  c-0.014,0.022-0.031,0.041-0.054,0.054l0,0V42.841L213.643,42.841z M216.5,42.556c-0.095,0.011-0.19,0.011-0.286,0V42.27  c0,0-0.107-0.402,0-0.286c0.085,0.063,0.201,0.063,0.286,0C216.5,41.984,216.669,42.538,216.5,42.556z M217.072,42.556l0.097,0.048  l0.475,0.237l0,0c0.172,0.027,0.179-0.348,0-0.286C217.454,42.588,217.261,42.588,217.072,42.556z M206.214,45.127l0.572-0.286  h0.571v0.571H206.5L206.214,45.127z M207.643,44.27c0.18-0.117,0.371-0.212,0.571-0.286l0,0c0,0,0.394,0.089,0.286,0.286  c-0.107,0.196,0.036,0.169,0,0.286s-0.571,0-0.571,0L207.643,44.27z M204.214,43.698l0.857,0.286l0.857-0.286h0.285  c0,0,0.402,0.188,0.286,0.286c-0.101,0.09-0.195,0.186-0.286,0.286c0,0-0.67,0.098-0.571,0s-0.285,0-0.285,0  s-0.027-0.366-0.286-0.286c-0.284,0.042-0.573,0.042-0.857,0V43.698z M197.929,44.841h0.857v0.571c-0.09,0.046-0.196,0.046-0.286,0  c-0.188-0.071-0.188-0.259-0.286-0.286C198.102,45.051,198.005,44.954,197.929,44.841z M197.929,43.984  c-0.188,0.026,0.571-0.286,0.571-0.286s0.223,0.232,0.286,0.286c0.063,0.053,0.214,0.33,0,0.286c-0.215-0.045-0.492,0.098-0.572,0  c-0.088-0.051-0.197-0.051-0.285,0C197.929,44.27,198.116,43.958,197.929,43.984z M199.929,41.984h0.857v0.571l0,0  c-0.125,0.259-0.206,0.125-0.286,0.286c-0.071,0.116-0.17,0.214-0.286,0.286c0,0,0.018-0.688,0-0.571s0.286,0,0.286,0V42.27  L199.929,41.984z M195.643,41.698l0.286,0.286c0.076,0.112,0.173,0.209,0.285,0.286h0.286c0,0,0.009-0.643,0-0.572  c-0.009,0.072-0.571,0-0.571,0H195.643z M193.357,44.27l-0.286,0.571c0,0-0.116,0.321,0,0.286s0.17,0.348,0.286,0.286  c0.116-0.063,0.259,0.089,0.286,0c0.026-0.089-0.081-0.536,0-0.571c0.04-0.091,0.04-0.195,0-0.286c0.044-0.009,0.473,0.169,0.286,0  C193.741,44.386,193.295,44.323,193.357,44.27L193.357,44.27z M196.214,44.841l-0.285,0.286v0.286h0.285c0,0-0.063-0.303,0-0.286  C196.277,45.145,196.214,44.841,196.214,44.841z M187.929,43.984c-0.232,0.098-0.473,0.598-0.572,0.571  c-0.098-0.027-0.286,0.348-0.286,0.286c-0.11,0.079-0.207,0.175-0.286,0.286c0,0,0.348-0.044,0.286,0  c-0.063,0.045,0.286,0.286,0.286,0.286s0.544-0.018,0.572,0c0.027,0.018,0.41,0.063,0.286,0c-0.125-0.063,0.071-0.678-0.286-0.571  c-0.357,0.107-0.179-0.018-0.286,0c-0.107,0.018,0-0.286,0-0.286l0.286-0.286C187.929,44.27,188.161,43.886,187.929,43.984z   M203.643,44.841c-0.188-0.076,0.857,0,0.857,0l0.286,0.286v0.286c-0.083,0.069-0.203,0.069-0.286,0  c-0.188-0.107-0.179-0.348-0.286-0.286c-0.106,0.063-0.268,0.089-0.285,0C203.86,45.009,203.761,44.911,203.643,44.841z   M202.214,44.556v0.571h0.286c0.091,0.041,0.194,0.041,0.286,0c0.027-0.093,0.027-0.192,0-0.286l-0.286-0.286H202.214z   M200.214,44.841h0.857l-0.285,0.286l0,0c-0.188,0.125-0.152,0-0.286,0C200.373,45.069,200.272,44.968,200.214,44.841  L200.214,44.841z M191.929,40.27h0.571c0,0-0.099,0.643-0.286,0.571c-0.09-0.046-0.196-0.046-0.286,0V40.27z M209.072,42.556  c-0.045,0.063,0.571,0,0.571,0l0.286,0.286h-0.571C209.358,42.841,209.116,42.493,209.072,42.556z M207.643,40.556l-0.571,0.286  v-0.286h0.286l0.285-0.286V40.556z M216.214,40.556h0.857l-0.285,0.286l-0.286,0.286L216.214,40.556z M201.643,43.984  L201.643,43.984l0.286,0.286v0.286c-0.095-0.015-0.191-0.015-0.286,0c-0.103,0.027,0-0.286,0-0.286S201.648,43.931,201.643,43.984z   M203.358,43.698h0.571v0.572h-0.571V43.698z M220.786,38.27l0.571-0.286v-0.286l-0.286-0.286c0,0-0.361,0.232-0.285,0.286  c0.075,0.054-0.286,0.286-0.286,0.286L220.786,38.27z M225.358,38.27l0.285-0.286l0,0c0.058-0.045-0.285-0.286-0.285-0.286  l-0.286,0.286L225.358,38.27z M218.214,39.127c-0.189-0.023-0.381-0.023-0.571,0l0.286-0.286  C217.929,38.841,218.572,39.163,218.214,39.127z M222.5,39.984l0.286,0.286l0,0c0,0,0.129,0.371,0,0.286  c-0.106-0.083-0.203-0.18-0.286-0.286V39.984z M217.358,37.698c0,0-0.282-0.105-0.286,0c0.065,0.121,0.165,0.221,0.286,0.286V37.698  z M227.929,37.984c0.095,0.014,0.19,0.014,0.285,0c0.19-0.013,0.382-0.013,0.572,0l0,0c0.055-0.142,0.154-0.288,0-0.286  c-0.19-0.014-0.382-0.014-0.572,0c-0.052,0.029,0.12-0.02,0,0c-0.095,0.011-0.19,0.011-0.285,0V37.984z M145.643,30.556v0.571  l0.286-0.571H145.643z M210.214,40.556h0.286c0,0,0.671-0.232,0.286-0.286c-0.189-0.036-0.383-0.036-0.572,0V40.556z   M205.072,42.556l0.334-0.112l0.523-0.174l0.571-0.286c0,0-0.526,0.518-0.571,0.571C205.644,42.583,205.357,42.583,205.072,42.556z   M235.643,45.698l0.571-0.571h0.857c-0.125,0.054-0.554,0.195-0.571,0.286s-0.196,0.338-0.286,0.286  C236.025,45.672,235.832,45.672,235.643,45.698z M239.072,44.841h0.286v0.571L239.072,44.841z M241.072,44.556  c0,0,0.554,0.07,0.571,0c0.019-0.071,0.286-0.072,0.286,0s-0.465,0.178-0.571,0.286c-0.087,0.06-0.2,0.06-0.286,0  C241.08,44.747,241.08,44.65,241.072,44.556z M242.5,44.556h0.571c0,0,0.393-0.322,0.286,0c-0.069,0.203-0.166,0.395-0.286,0.571  C242.86,44.959,242.667,44.768,242.5,44.556z M235.358,27.984h0.571c0,0,0.857-0.143,0.857,0c0.054,0.129,0.156,0.231,0.285,0.286  c0,0,0.45,0.209,0.571,0.286c0.144,0.089,0.482-0.162,0.571,0c0.322,0.582,0.25,0.751,0.572,0.571  c-0.372,0.13-0.754,0.227-1.144,0.286c-0.179,0.019-0.856,0-0.856,0s0.018-0.251-0.572-0.571c-0.589-0.321-0.571-0.571-0.571-0.571  L235.358,27.984z M239.072,29.984c0,0,1.215,0.392,1.143,5.286c-0.038-0.058,0.043-0.074,0.172-0.065  c0.135,0.011,0.269,0.033,0.4,0.065c0.045,0.011,0.438,0.041,0.152,0.041c-0.286,0,0.704,0.245,0.704,0.245  c0.092,0.036,0.194,0.036,0.286,0c0.035-0.071,0.196,0.017,0.285,0c0.188-0.054,0.385-0.054,0.572,0c0.143,0.09,0.089-0.055,0.285,0  c0.092,0.037,0.194,0.037,0.286,0V30.27c0,0,0.464-0.394-0.286-0.286c-0.75,0.108-0.857,0-0.857,0  c-0.092,0.225-0.336,0.347-0.571,0.286c-0.41-0.106-1.446-0.198-1.714-0.286c-0.2-0.074-0.392-0.17-0.571-0.286L239.072,29.984z   M230.786,7.698L230.5,7.413c0,0-0.071-0.107-0.286,0c-0.214,0.107-0.356-0.089-0.571,0c-0.214,0.089-1.25,0.447-1.429,0.286  c-0.174-0.125-0.366-0.222-0.571-0.286h-0.285c0,0-0.161,0.447,0,0.571c0.16,0.125,0.535,0.429,0.571,0.286  c0.035-0.143,1.143-0.572,1.143-0.572s0.25-0.089,0.286,0c0.035,0.089,0.571,0,0.571,0l0.571,0.286L230.786,7.698z M193.929,6.27  c-0.046-0.214-0.079-0.625-0.286-0.572c-0.208,0.054-0.097-0.053-0.286,0c-0.189,0.054-0.632-0.053-0.857,0  c-0.188,0.048-0.384,0.048-0.571,0c-0.011-0.036-0.472,0.054-0.572,0s-0.454,0.072-0.571,0c-0.285-0.036-0.572-0.036-0.857,0h-0.572  l-0.286,0.286l0.572,0.572c0,0,1.421,0.018,1.428,0s0.857,0,0.857,0S193.975,6.484,193.929,6.27z M197.929,6.27l0.285-0.286h1.715  v0.857l-0.571-0.286H198.5L197.929,6.27z M233.358,35.698c0,0,1.035,0.188,0.856,0c-0.178-0.188-0.143-0.257-0.285-0.286  C233.786,35.384,233.358,35.698,233.358,35.698z"
></path>
</svg>