<svg width="870" height="689" viewBox="0 0 870 689" fill="none" xmlns="http://www.w3.org/2000/svg">
<path fill-rule="evenodd" clip-rule="evenodd" d="M290.462 79.6691L239.532 77L239.394 79.6353C220.778 91.5641 199.825 221.587 191.471 380.999C183.117 540.411 190.363 671.912 207.63 685.722L207.607 686.164L208.31 686.201C209.019 686.635 209.745 686.875 210.487 686.914C211.229 686.953 211.975 686.79 212.726 686.432L258.537 688.833L290.462 79.6691Z" fill="#B02727"/>
<path fill-rule="evenodd" clip-rule="evenodd" d="M574 79.6691L623.55 77L623.564 77.2673C642.337 76.4245 664.495 211.957 673.07 380.13C681.65 548.407 673.381 685.643 654.601 686.655C653.949 686.69 653.292 686.56 652.633 686.271L605.06 688.833L574 79.6691Z" fill="#B02727"/>
<rect x="406" y="74" width="56" height="144" fill="#B02727"/>
<path fill-rule="evenodd" clip-rule="evenodd" d="M134.43 234H736.57C738.294 212.999 743.841 194.035 752 179.137V178H118.368C126.872 193.065 132.662 212.461 134.43 234Z" fill="#B02727"/>
<path fill-rule="evenodd" clip-rule="evenodd" d="M196.79 689C192.935 660.503 190.276 618.829 189 568H265L260.196 689H196.79Z" fill="black"/>
<path fill-rule="evenodd" clip-rule="evenodd" d="M668.108 689C672.013 660.503 674.708 618.829 676 568L599 568L603.868 689H668.108Z" fill="black"/>
<rect x="419" y="123" width="30" height="83" fill="black"/>
<rect x="21" y="41" width="828" height="42" fill="#B02727"/>
<path fill-rule="evenodd" clip-rule="evenodd" d="M435 34.1463C675.244 34.1463 870 19.1315 870 0.609756V50H0V0.609756C0 19.1315 194.756 34.1463 435 34.1463ZM0.0704578 0C0.0235521 0.202818 0 0.406075 0 0.609756V0H0.0704578ZM869.93 0H870V0.609756C870 0.406075 869.977 0.202818 869.93 0Z" fill="black"/>
</svg>
